<svg width="1584" height="414" viewBox="0 0 1584 414" fill="none" xmlns="http://www.w3.org/2000/svg">
<path d="M0.000183105 17H504V90H0.000183105V17Z" fill="#F8CC46"/>
<path d="M70.1856 39.904H53.9136V70H49.4976V36.64H74.6016V70H70.1856V39.904ZM91.5249 48.304C89.7969 48.304 88.3089 48.912 87.0609 50.128C85.8449 51.344 85.0769 53.184 84.7569 55.648H96.9969C97.1889 53.152 96.7569 51.312 95.7009 50.128C94.6769 48.912 93.2849 48.304 91.5249 48.304ZM100.405 67.936C99.5409 68.672 98.4209 69.28 97.0449 69.76C95.6689 70.24 94.1009 70.48 92.3409 70.48C88.5009 70.48 85.5569 69.392 83.5089 67.216C81.4609 65.008 80.4369 61.904 80.4369 57.904C80.4369 55.952 80.7249 54.208 81.3009 52.672C81.8769 51.104 82.6609 49.776 83.6529 48.688C84.6769 47.6 85.8609 46.784 87.2049 46.24C88.5809 45.664 90.0529 45.376 91.6209 45.376C93.2529 45.376 94.7089 45.664 95.9889 46.24C97.3009 46.784 98.3729 47.616 99.2049 48.736C100.069 49.824 100.645 51.2 100.933 52.864C101.253 54.496 101.253 56.384 100.933 58.528H84.6129C84.8049 64.32 87.5089 67.216 92.7249 67.216C94.1009 67.216 95.3329 67.008 96.4209 66.592C97.5089 66.176 98.5169 65.648 99.4449 65.008L100.405 67.936ZM118.053 67.552C120.197 67.552 121.925 66.8 123.237 65.296C124.581 63.76 125.253 61.296 125.253 57.904C125.253 54.576 124.581 52.144 123.237 50.608C121.925 49.04 120.197 48.256 118.053 48.256C116.997 48.256 115.989 48.448 115.029 48.832C114.069 49.184 113.221 49.76 112.485 50.56C111.781 51.328 111.221 52.32 110.805 53.536C110.389 54.752 110.181 56.208 110.181 57.904C110.181 59.632 110.389 61.104 110.805 62.32C111.221 63.536 111.781 64.528 112.485 65.296C113.221 66.064 114.069 66.64 115.029 67.024C115.989 67.376 116.997 67.552 118.053 67.552ZM118.677 70.48C116.885 70.48 115.301 70.096 113.925 69.328C112.581 68.528 111.477 67.44 110.613 66.064V78.976H106.533V45.856H110.133L110.421 50.128C111.285 48.688 112.405 47.536 113.781 46.672C115.189 45.808 116.885 45.376 118.869 45.376C120.277 45.376 121.621 45.632 122.901 46.144C124.181 46.656 125.301 47.424 126.261 48.448C127.253 49.472 128.037 50.784 128.613 52.384C129.189 53.952 129.477 55.792 129.477 57.904C129.477 60.016 129.173 61.872 128.565 63.472C127.989 65.04 127.205 66.352 126.213 67.408C125.221 68.432 124.069 69.2 122.757 69.712C121.477 70.224 120.117 70.48 118.677 70.48ZM144.494 48.304C142.766 48.304 141.278 48.912 140.03 50.128C138.814 51.344 138.046 53.184 137.726 55.648H149.966C150.158 53.152 149.726 51.312 148.67 50.128C147.646 48.912 146.254 48.304 144.494 48.304ZM153.374 67.936C152.51 68.672 151.39 69.28 150.014 69.76C148.638 70.24 147.07 70.48 145.31 70.48C141.47 70.48 138.526 69.392 136.478 67.216C134.43 65.008 133.406 61.904 133.406 57.904C133.406 55.952 133.694 54.208 134.27 52.672C134.846 51.104 135.63 49.776 136.622 48.688C137.646 47.6 138.83 46.784 140.174 46.24C141.55 45.664 143.022 45.376 144.59 45.376C146.222 45.376 147.678 45.664 148.958 46.24C150.27 46.784 151.342 47.616 152.174 48.736C153.038 49.824 153.614 51.2 153.902 52.864C154.222 54.496 154.222 56.384 153.902 58.528H137.582C137.774 64.32 140.478 67.216 145.694 67.216C147.07 67.216 148.302 67.008 149.39 66.592C150.478 66.176 151.486 65.648 152.414 65.008L153.374 67.936ZM167.188 60.208L160.468 70H156.628L165.364 57.472L157.636 45.856H162.532L168.388 54.592L174.388 45.856H178.228L170.212 57.376L178.612 70H173.764L167.188 60.208ZM192.037 70.48C190.469 70.48 188.981 70.208 187.573 69.664C186.165 69.088 184.933 68.272 183.877 67.216C182.821 66.128 181.973 64.816 181.333 63.28C180.725 61.712 180.421 59.92 180.421 57.904C180.421 55.888 180.725 54.112 181.333 52.576C181.973 51.008 182.821 49.696 183.877 48.64C184.933 47.584 186.165 46.784 187.573 46.24C188.981 45.664 190.469 45.376 192.037 45.376C193.605 45.376 195.093 45.664 196.501 46.24C197.941 46.784 199.189 47.584 200.245 48.64C201.333 49.696 202.197 51.008 202.837 52.576C203.477 54.112 203.797 55.888 203.797 57.904C203.797 59.92 203.477 61.712 202.837 63.28C202.197 64.816 201.333 66.128 200.245 67.216C199.189 68.272 197.941 69.088 196.501 69.664C195.093 70.208 193.605 70.48 192.037 70.48ZM192.037 67.456C192.997 67.456 193.925 67.296 194.821 66.976C195.749 66.624 196.565 66.064 197.269 65.296C197.973 64.528 198.533 63.536 198.949 62.32C199.397 61.104 199.621 59.632 199.621 57.904C199.621 56.176 199.397 54.72 198.949 53.536C198.533 52.32 197.973 51.328 197.269 50.56C196.565 49.792 195.749 49.248 194.821 48.928C193.925 48.576 192.997 48.4 192.037 48.4C191.077 48.4 190.149 48.576 189.253 48.928C188.389 49.248 187.605 49.792 186.901 50.56C186.197 51.328 185.637 52.32 185.221 53.536C184.805 54.72 184.597 56.176 184.597 57.904C184.597 59.632 184.805 61.104 185.221 62.32C185.637 63.536 186.197 64.528 186.901 65.296C187.605 66.064 188.389 66.624 189.253 66.976C190.149 67.296 191.077 67.456 192.037 67.456ZM212.987 65.344C212.731 65.92 212.395 66.464 211.979 66.976H224.267V48.736H215.291C215.131 52.896 214.891 56.32 214.571 59.008C214.251 61.664 213.723 63.776 212.987 65.344ZM228.011 70H209.819L208.955 77.632H205.835V66.976H207.563C208.715 66.272 209.579 64.992 210.155 63.136C210.731 61.312 211.115 58.976 211.307 56.128C211.499 53.248 211.643 49.824 211.739 45.856H228.347V66.976H231.995V77.632H228.875L228.011 70ZM262.469 48.736H251.285V70H247.205V45.856H266.549V70H262.469V48.736ZM283.537 70.48C281.969 70.48 280.481 70.208 279.073 69.664C277.665 69.088 276.433 68.272 275.377 67.216C274.321 66.128 273.473 64.816 272.833 63.28C272.225 61.712 271.921 59.92 271.921 57.904C271.921 55.888 272.225 54.112 272.833 52.576C273.473 51.008 274.321 49.696 275.377 48.64C276.433 47.584 277.665 46.784 279.073 46.24C280.481 45.664 281.969 45.376 283.537 45.376C285.105 45.376 286.593 45.664 288.001 46.24C289.441 46.784 290.689 47.584 291.745 48.64C292.833 49.696 293.697 51.008 294.337 52.576C294.977 54.112 295.297 55.888 295.297 57.904C295.297 59.92 294.977 61.712 294.337 63.28C293.697 64.816 292.833 66.128 291.745 67.216C290.689 68.272 289.441 69.088 288.001 69.664C286.593 70.208 285.105 70.48 283.537 70.48ZM283.537 67.456C284.497 67.456 285.425 67.296 286.321 66.976C287.249 66.624 288.065 66.064 288.769 65.296C289.473 64.528 290.033 63.536 290.449 62.32C290.897 61.104 291.121 59.632 291.121 57.904C291.121 56.176 290.897 54.72 290.449 53.536C290.033 52.32 289.473 51.328 288.769 50.56C288.065 49.792 287.249 49.248 286.321 48.928C285.425 48.576 284.497 48.4 283.537 48.4C282.577 48.4 281.649 48.576 280.753 48.928C279.889 49.248 279.105 49.792 278.401 50.56C277.697 51.328 277.137 52.32 276.721 53.536C276.305 54.72 276.097 56.176 276.097 57.904C276.097 59.632 276.305 61.104 276.721 62.32C277.137 63.536 277.697 64.528 278.401 65.296C279.105 66.064 279.889 66.624 280.753 66.976C281.649 67.296 282.577 67.456 283.537 67.456ZM321.561 70.48C319.897 70.48 318.329 70.208 316.857 69.664C315.417 69.088 314.153 68.256 313.065 67.168C312.009 66.08 311.161 64.768 310.521 63.232C309.913 61.664 309.609 59.888 309.609 57.904C309.609 55.952 309.913 54.208 310.521 52.672C311.161 51.104 312.025 49.776 313.113 48.688C314.233 47.6 315.545 46.784 317.049 46.24C318.553 45.664 320.169 45.376 321.897 45.376C323.337 45.376 324.633 45.52 325.785 45.808C326.937 46.096 327.897 46.496 328.665 47.008L327.465 50.656C326.537 49.984 325.625 49.472 324.729 49.12C323.865 48.736 322.825 48.544 321.609 48.544C320.553 48.544 319.545 48.752 318.585 49.168C317.625 49.552 316.793 50.144 316.089 50.944C315.385 51.712 314.825 52.688 314.409 53.872C313.993 55.024 313.785 56.368 313.785 57.904C313.785 61.04 314.537 63.376 316.041 64.912C317.545 66.448 319.593 67.216 322.185 67.216C323.049 67.216 323.977 67.056 324.969 66.736C325.993 66.416 326.921 65.952 327.753 65.344L328.665 68.368C327.833 69.008 326.809 69.52 325.593 69.904C324.409 70.288 323.065 70.48 321.561 70.48ZM344.342 70.48C342.678 70.48 341.11 70.208 339.638 69.664C338.198 69.088 336.934 68.256 335.846 67.168C334.79 66.08 333.942 64.768 333.302 63.232C332.694 61.664 332.39 59.888 332.39 57.904C332.39 55.952 332.694 54.208 333.302 52.672C333.942 51.104 334.806 49.776 335.894 48.688C337.014 47.6 338.326 46.784 339.83 46.24C341.334 45.664 342.95 45.376 344.678 45.376C346.118 45.376 347.414 45.52 348.566 45.808C349.718 46.096 350.678 46.496 351.446 47.008L350.246 50.656C349.318 49.984 348.406 49.472 347.51 49.12C346.646 48.736 345.606 48.544 344.39 48.544C343.334 48.544 342.326 48.752 341.366 49.168C340.406 49.552 339.574 50.144 338.87 50.944C338.166 51.712 337.606 52.688 337.19 53.872C336.774 55.024 336.566 56.368 336.566 57.904C336.566 61.04 337.318 63.376 338.822 64.912C340.326 66.448 342.374 67.216 344.966 67.216C345.83 67.216 346.758 67.056 347.75 66.736C348.774 66.416 349.702 65.952 350.534 65.344L351.446 68.368C350.614 69.008 349.59 69.52 348.374 69.904C347.19 70.288 345.846 70.48 344.342 70.48ZM382.051 70H377.971V45.856H382.051V70ZM360.691 56.464V67.12H364.387C366.147 67.12 367.571 66.672 368.659 65.776C369.779 64.88 370.339 63.52 370.339 61.696C370.339 59.84 369.843 58.512 368.851 57.712C367.859 56.88 366.467 56.464 364.675 56.464H360.691ZM356.611 45.856H360.691V53.584H364.675C367.779 53.584 370.179 54.224 371.875 55.504C373.603 56.752 374.467 58.736 374.467 61.456C374.467 62.864 374.211 64.112 373.699 65.2C373.219 66.256 372.531 67.152 371.635 67.888C370.739 68.592 369.667 69.12 368.419 69.472C367.203 69.824 365.859 70 364.387 70H356.611V45.856ZM394.045 63.616C393.565 65.6 392.749 67.184 391.597 68.368C390.445 69.552 388.781 70.112 386.605 70.048L386.077 66.688C387.197 66.752 388.141 66.416 388.909 65.68C389.709 64.912 390.269 63.856 390.589 62.512C390.845 61.456 391.037 60.368 391.165 59.248C391.325 58.128 391.453 56.928 391.549 55.648C391.645 54.336 391.709 52.88 391.741 51.28C391.805 49.68 391.853 47.872 391.885 45.856H407.389V70H403.261L403.165 48.736H395.437C395.405 50.272 395.357 51.712 395.293 53.056C395.261 54.368 395.197 55.632 395.101 56.848C395.005 58.032 394.861 59.184 394.669 60.304C394.509 61.392 394.301 62.496 394.045 63.616ZM429.005 70L418.925 57.136L428.861 45.856H433.133L423.293 56.656L433.805 70H429.005ZM418.301 45.856V70H414.221V45.856H418.301ZM446.791 48.304C445.063 48.304 443.575 48.912 442.327 50.128C441.111 51.344 440.343 53.184 440.023 55.648H452.263C452.455 53.152 452.023 51.312 450.967 50.128C449.943 48.912 448.551 48.304 446.791 48.304ZM455.671 67.936C454.807 68.672 453.687 69.28 452.311 69.76C450.935 70.24 449.367 70.48 447.607 70.48C443.767 70.48 440.823 69.392 438.775 67.216C436.727 65.008 435.703 61.904 435.703 57.904C435.703 55.952 435.991 54.208 436.567 52.672C437.143 51.104 437.927 49.776 438.919 48.688C439.943 47.6 441.127 46.784 442.471 46.24C443.847 45.664 445.319 45.376 446.887 45.376C448.519 45.376 449.975 45.664 451.255 46.24C452.567 46.784 453.639 47.616 454.471 48.736C455.335 49.824 455.911 51.2 456.199 52.864C456.519 54.496 456.519 56.384 456.199 58.528H439.879C440.071 64.32 442.775 67.216 447.991 67.216C449.367 67.216 450.599 67.008 451.687 66.592C452.775 66.176 453.783 65.648 454.711 65.008L455.671 67.936Z" fill="black"/>
<path d="M509 225H1013V298H509V225Z" fill="#F8CC46"/>
<path d="M591.815 278.48C589.447 278.48 587.383 278.16 585.623 277.52C583.863 276.88 582.599 276.192 581.831 275.456L583.271 272.48C584.615 273.408 585.911 274.096 587.159 274.544C588.407 274.96 589.863 275.168 591.527 275.168C592.583 275.168 593.575 275.04 594.503 274.784C595.431 274.496 596.231 274.064 596.903 273.488C597.607 272.88 598.151 272.128 598.535 271.232C598.951 270.304 599.159 269.216 599.159 267.968C599.159 265.792 598.519 264.24 597.239 263.312C595.959 262.352 594.087 261.872 591.623 261.872H587.303V258.608H591.671C593.879 258.608 595.511 258.144 596.567 257.216C597.623 256.256 598.151 254.864 598.151 253.04C598.151 251.12 597.591 249.744 596.471 248.912C595.351 248.08 593.831 247.664 591.911 247.664C590.279 247.664 588.855 247.872 587.639 248.288C586.423 248.672 585.255 249.28 584.135 250.112L582.503 246.512C583.655 245.872 584.983 245.328 586.487 244.88C587.991 244.432 589.799 244.208 591.911 244.208C595.271 244.208 597.895 244.928 599.783 246.368C601.671 247.808 602.615 249.92 602.615 252.704C602.615 256.576 600.679 259.008 596.807 260C601.447 260.864 603.767 263.536 603.767 268.016C603.767 269.776 603.447 271.312 602.807 272.624C602.199 273.936 601.351 275.024 600.263 275.888C599.175 276.752 597.895 277.408 596.423 277.856C594.983 278.272 593.447 278.48 591.815 278.48ZM616.451 275.504C618.147 275.504 619.491 275.088 620.483 274.256C621.507 273.392 622.259 272.416 622.739 271.328V266.768H620.627C617.523 266.768 615.283 267.104 613.907 267.776C612.563 268.416 611.891 269.664 611.891 271.52C611.891 272.832 612.339 273.824 613.235 274.496C614.163 275.168 615.235 275.504 616.451 275.504ZM623.507 278C623.379 277.552 623.267 277.024 623.171 276.416C623.075 275.808 622.995 275.152 622.931 274.448C622.643 274.928 622.291 275.408 621.875 275.888C621.491 276.368 621.011 276.8 620.435 277.184C619.859 277.568 619.171 277.872 618.371 278.096C617.571 278.352 616.643 278.48 615.587 278.48C614.531 278.48 613.539 278.336 612.611 278.048C611.683 277.76 610.851 277.328 610.115 276.752C609.411 276.176 608.851 275.472 608.435 274.64C608.019 273.808 607.811 272.848 607.811 271.76C607.811 269.136 608.851 267.232 610.931 266.048C613.043 264.832 616.147 264.224 620.243 264.224H622.739V262.256C622.739 260.304 622.323 258.848 621.491 257.888C620.659 256.928 619.187 256.448 617.075 256.448C615.635 256.448 614.323 256.72 613.139 257.264C611.987 257.776 610.963 258.4 610.067 259.136L608.963 255.776C609.347 255.488 609.843 255.2 610.451 254.912C611.059 254.624 611.747 254.368 612.515 254.144C613.283 253.92 614.099 253.744 614.963 253.616C615.827 253.456 616.707 253.376 617.603 253.376C620.643 253.376 622.931 254.048 624.467 255.392C626.035 256.704 626.819 258.8 626.819 261.68V274.112C626.819 274.656 626.851 275.344 626.915 276.176C626.979 276.976 627.059 277.584 627.155 278H623.507ZM637.473 256.736V278H633.393V253.856H647.793V256.736H637.473ZM664.413 275.552C666.557 275.552 668.285 274.8 669.597 273.296C670.941 271.76 671.613 269.296 671.613 265.904C671.613 262.576 670.941 260.144 669.597 258.608C668.285 257.04 666.557 256.256 664.413 256.256C663.357 256.256 662.349 256.448 661.389 256.832C660.429 257.184 659.581 257.76 658.845 258.56C658.141 259.328 657.581 260.32 657.165 261.536C656.749 262.752 656.541 264.208 656.541 265.904C656.541 267.632 656.749 269.104 657.165 270.32C657.581 271.536 658.141 272.528 658.845 273.296C659.581 274.064 660.429 274.64 661.389 275.024C662.349 275.376 663.357 275.552 664.413 275.552ZM665.037 278.48C663.245 278.48 661.661 278.096 660.285 277.328C658.941 276.528 657.837 275.44 656.973 274.064V286.976H652.893V253.856H656.493L656.781 258.128C657.645 256.688 658.765 255.536 660.141 254.672C661.549 253.808 663.245 253.376 665.229 253.376C666.637 253.376 667.981 253.632 669.261 254.144C670.541 254.656 671.661 255.424 672.621 256.448C673.613 257.472 674.397 258.784 674.973 260.384C675.549 261.952 675.837 263.792 675.837 265.904C675.837 268.016 675.533 269.872 674.925 271.472C674.349 273.04 673.565 274.352 672.573 275.408C671.581 276.432 670.429 277.2 669.117 277.712C667.837 278.224 666.477 278.48 665.037 278.48ZM683.131 287.408C682.395 287.408 681.723 287.344 681.115 287.216C680.539 287.12 680.027 286.992 679.579 286.832L680.107 283.52C680.491 283.68 680.923 283.824 681.403 283.952C681.883 284.08 682.395 284.144 682.939 284.144C683.835 284.144 684.651 283.856 685.387 283.28C686.123 282.704 686.923 281.68 687.787 280.208L678.235 253.856H682.651L689.995 274.928L697.339 253.856H701.035L692.491 277.712C691.915 279.28 691.323 280.656 690.715 281.84C690.107 283.056 689.435 284.064 688.699 284.864C687.963 285.696 687.131 286.32 686.203 286.736C685.307 287.184 684.283 287.408 683.131 287.408ZM711.159 278.48C709.527 278.48 708.023 278.272 706.647 277.856C705.271 277.44 704.215 276.944 703.479 276.368L704.583 273.584C705.415 274.16 706.423 274.624 707.607 274.976C708.791 275.296 710.023 275.456 711.303 275.456C712.871 275.456 714.183 275.12 715.239 274.448C716.295 273.744 716.823 272.576 716.823 270.944C716.823 268.32 714.935 267.008 711.159 267.008H707.943V263.84H711.303C712.871 263.84 714.039 263.52 714.807 262.88C715.607 262.208 716.007 261.296 716.007 260.144C716.007 259.44 715.879 258.848 715.623 258.368C715.367 257.856 715.015 257.456 714.567 257.168C714.119 256.848 713.591 256.624 712.983 256.496C712.407 256.336 711.767 256.256 711.063 256.256C709.879 256.256 708.807 256.464 707.847 256.88C706.919 257.296 706.007 257.84 705.111 258.512L704.055 255.44C704.823 254.832 705.831 254.336 707.079 253.952C708.327 253.568 709.767 253.376 711.399 253.376C714.055 253.376 716.103 253.92 717.543 255.008C719.015 256.064 719.751 257.616 719.751 259.664C719.751 261.232 719.303 262.48 718.407 263.408C717.511 264.304 716.391 264.88 715.047 265.136C718.887 265.776 720.807 267.792 720.807 271.184C720.807 272.496 720.535 273.616 719.991 274.544C719.479 275.44 718.775 276.192 717.879 276.8C717.015 277.376 715.991 277.792 714.807 278.048C713.655 278.336 712.439 278.48 711.159 278.48ZM741.083 278L731.003 265.136L740.939 253.856H745.211L735.371 264.656L745.883 278H741.083ZM730.379 253.856V278H726.299V253.856H730.379ZM756.841 275.504C758.537 275.504 759.881 275.088 760.873 274.256C761.897 273.392 762.649 272.416 763.129 271.328V266.768H761.017C757.913 266.768 755.673 267.104 754.297 267.776C752.953 268.416 752.281 269.664 752.281 271.52C752.281 272.832 752.729 273.824 753.625 274.496C754.553 275.168 755.625 275.504 756.841 275.504ZM763.897 278C763.769 277.552 763.657 277.024 763.561 276.416C763.465 275.808 763.385 275.152 763.321 274.448C763.033 274.928 762.681 275.408 762.265 275.888C761.881 276.368 761.401 276.8 760.825 277.184C760.249 277.568 759.561 277.872 758.761 278.096C757.961 278.352 757.033 278.48 755.977 278.48C754.921 278.48 753.929 278.336 753.001 278.048C752.073 277.76 751.241 277.328 750.505 276.752C749.801 276.176 749.241 275.472 748.825 274.64C748.409 273.808 748.201 272.848 748.201 271.76C748.201 269.136 749.241 267.232 751.321 266.048C753.433 264.832 756.537 264.224 760.633 264.224H763.129V262.256C763.129 260.304 762.713 258.848 761.881 257.888C761.049 256.928 759.577 256.448 757.465 256.448C756.025 256.448 754.713 256.72 753.529 257.264C752.377 257.776 751.353 258.4 750.457 259.136L749.353 255.776C749.737 255.488 750.233 255.2 750.841 254.912C751.449 254.624 752.137 254.368 752.905 254.144C753.673 253.92 754.489 253.744 755.353 253.616C756.217 253.456 757.097 253.376 757.993 253.376C761.033 253.376 763.321 254.048 764.857 255.392C766.425 256.704 767.209 258.8 767.209 261.68V274.112C767.209 274.656 767.241 275.344 767.305 276.176C767.369 276.976 767.449 277.584 767.545 278H763.897ZM788.175 273.344C787.919 273.92 787.583 274.464 787.167 274.976H799.455V256.736H790.479C790.319 260.896 790.079 264.32 789.759 267.008C789.439 269.664 788.911 271.776 788.175 273.344ZM803.199 278H785.007L784.143 285.632H781.023V274.976H782.751C783.903 274.272 784.767 272.992 785.343 271.136C785.919 269.312 786.303 266.976 786.495 264.128C786.687 261.248 786.831 257.824 786.927 253.856H803.535V274.976H807.183V285.632H804.063L803.199 278ZM818.951 275.504C820.647 275.504 821.991 275.088 822.983 274.256C824.007 273.392 824.759 272.416 825.239 271.328V266.768H823.127C820.023 266.768 817.783 267.104 816.407 267.776C815.063 268.416 814.391 269.664 814.391 271.52C814.391 272.832 814.839 273.824 815.735 274.496C816.663 275.168 817.735 275.504 818.951 275.504ZM826.007 278C825.879 277.552 825.767 277.024 825.671 276.416C825.575 275.808 825.495 275.152 825.431 274.448C825.143 274.928 824.791 275.408 824.375 275.888C823.991 276.368 823.511 276.8 822.935 277.184C822.359 277.568 821.671 277.872 820.871 278.096C820.071 278.352 819.143 278.48 818.087 278.48C817.031 278.48 816.039 278.336 815.111 278.048C814.183 277.76 813.351 277.328 812.615 276.752C811.911 276.176 811.351 275.472 810.935 274.64C810.519 273.808 810.311 272.848 810.311 271.76C810.311 269.136 811.351 267.232 813.431 266.048C815.543 264.832 818.647 264.224 822.743 264.224H825.239V262.256C825.239 260.304 824.823 258.848 823.991 257.888C823.159 256.928 821.687 256.448 819.575 256.448C818.135 256.448 816.823 256.72 815.639 257.264C814.487 257.776 813.463 258.4 812.567 259.136L811.463 255.776C811.847 255.488 812.343 255.2 812.951 254.912C813.559 254.624 814.247 254.368 815.015 254.144C815.783 253.92 816.599 253.744 817.463 253.616C818.327 253.456 819.207 253.376 820.103 253.376C823.143 253.376 825.431 254.048 826.967 255.392C828.535 256.704 829.319 258.8 829.319 261.68V274.112C829.319 274.656 829.351 275.344 829.415 276.176C829.479 276.976 829.559 277.584 829.655 278H826.007ZM851.685 266.96H839.973V278H835.893V253.856H839.973V264.08H851.685V253.856H855.765V278H851.685V266.96ZM878.356 266.96H866.644V278H862.564V253.856H866.644V264.08H878.356V253.856H882.436V278H878.356V266.96ZM914.676 278H910.596V253.856H914.676V278ZM893.316 264.464V275.12H897.012C898.772 275.12 900.196 274.672 901.284 273.776C902.404 272.88 902.964 271.52 902.964 269.696C902.964 267.84 902.468 266.512 901.476 265.712C900.484 264.88 899.092 264.464 897.3 264.464H893.316ZM889.236 253.856H893.316V261.584H897.3C900.404 261.584 902.804 262.224 904.5 263.504C906.228 264.752 907.092 266.736 907.092 269.456C907.092 270.864 906.836 272.112 906.324 273.2C905.844 274.256 905.156 275.152 904.26 275.888C903.364 276.592 902.292 277.12 901.044 277.472C899.828 277.824 898.484 278 897.012 278H889.236V253.856ZM929.406 268.208L922.686 278H918.846L927.582 265.472L919.854 253.856H924.75L930.606 262.592L936.606 253.856H940.446L932.43 265.376L940.83 278H935.982L929.406 268.208Z" fill="black"/>
<path d="M1075 326H1579V399H1075V326Z" fill="#F8CC46"/>
<path d="M1218.61 348.904V363.688H1224.37C1225.55 363.688 1226.62 363.528 1227.58 363.208C1228.58 362.856 1229.42 362.344 1230.13 361.672C1230.86 361 1231.42 360.168 1231.81 359.176C1232.22 358.184 1232.43 357.016 1232.43 355.672C1232.43 353.432 1231.74 351.752 1230.37 350.632C1229.02 349.48 1227.15 348.904 1224.75 348.904H1218.61ZM1218.61 366.952V379H1214.19V345.64H1224.75C1228.53 345.64 1231.49 346.488 1233.63 348.184C1235.78 349.848 1236.85 352.328 1236.85 355.624C1236.85 357.512 1236.53 359.176 1235.89 360.616C1235.28 362.024 1234.42 363.208 1233.3 364.168C1232.21 365.096 1230.9 365.8 1229.36 366.28C1227.86 366.728 1226.19 366.952 1224.37 366.952H1218.61ZM1250.92 357.304C1249.2 357.304 1247.71 357.912 1246.46 359.128C1245.24 360.344 1244.48 362.184 1244.16 364.648H1256.4C1256.59 362.152 1256.16 360.312 1255.1 359.128C1254.08 357.912 1252.68 357.304 1250.92 357.304ZM1259.8 376.936C1258.94 377.672 1257.82 378.28 1256.44 378.76C1255.07 379.24 1253.5 379.48 1251.74 379.48C1247.9 379.48 1244.96 378.392 1242.91 376.216C1240.86 374.008 1239.84 370.904 1239.84 366.904C1239.84 364.952 1240.12 363.208 1240.7 361.672C1241.28 360.104 1242.06 358.776 1243.05 357.688C1244.08 356.6 1245.26 355.784 1246.6 355.24C1247.98 354.664 1249.45 354.376 1251.02 354.376C1252.65 354.376 1254.11 354.664 1255.39 355.24C1256.7 355.784 1257.77 356.616 1258.6 357.736C1259.47 358.824 1260.04 360.2 1260.33 361.864C1260.65 363.496 1260.65 365.384 1260.33 367.528H1244.01C1244.2 373.32 1246.91 376.216 1252.12 376.216C1253.5 376.216 1254.73 376.008 1255.82 375.592C1256.91 375.176 1257.92 374.648 1258.84 374.008L1259.8 376.936ZM1281.72 367.96H1270.01V379H1265.93V354.856H1270.01V365.08H1281.72V354.856H1285.8V379H1281.72V367.96ZM1296.64 374.344C1296.38 374.92 1296.04 375.464 1295.63 375.976H1307.92V357.736H1298.94C1298.78 361.896 1298.54 365.32 1298.22 368.008C1297.9 370.664 1297.37 372.776 1296.64 374.344ZM1311.66 379H1293.47L1292.6 386.632H1289.48V375.976H1291.21C1292.36 375.272 1293.23 373.992 1293.8 372.136C1294.38 370.312 1294.76 367.976 1294.96 365.128C1295.15 362.248 1295.29 358.824 1295.39 354.856H1312V375.976H1315.64V386.632H1312.52L1311.66 379ZM1329.67 357.304C1327.95 357.304 1326.46 357.912 1325.21 359.128C1323.99 360.344 1323.23 362.184 1322.91 364.648H1335.15C1335.34 362.152 1334.91 360.312 1333.85 359.128C1332.83 357.912 1331.43 357.304 1329.67 357.304ZM1338.55 376.936C1337.69 377.672 1336.57 378.28 1335.19 378.76C1333.82 379.24 1332.25 379.48 1330.49 379.48C1326.65 379.48 1323.71 378.392 1321.66 376.216C1319.61 374.008 1318.59 370.904 1318.59 366.904C1318.59 364.952 1318.87 363.208 1319.45 361.672C1320.03 360.104 1320.81 358.776 1321.8 357.688C1322.83 356.6 1324.01 355.784 1325.35 355.24C1326.73 354.664 1328.2 354.376 1329.77 354.376C1331.4 354.376 1332.86 354.664 1334.14 355.24C1335.45 355.784 1336.52 356.616 1337.35 357.736C1338.22 358.824 1338.79 360.2 1339.08 361.864C1339.4 363.496 1339.4 365.384 1339.08 367.528H1322.76C1322.95 373.32 1325.66 376.216 1330.87 376.216C1332.25 376.216 1333.48 376.008 1334.57 375.592C1335.66 375.176 1336.67 374.648 1337.59 374.008L1338.55 376.936ZM1356.2 376.552C1358.35 376.552 1360.07 375.8 1361.39 374.296C1362.73 372.76 1363.4 370.296 1363.4 366.904C1363.4 363.576 1362.73 361.144 1361.39 359.608C1360.07 358.04 1358.35 357.256 1356.2 357.256C1355.15 357.256 1354.14 357.448 1353.18 357.832C1352.22 358.184 1351.37 358.76 1350.63 359.56C1349.93 360.328 1349.37 361.32 1348.95 362.536C1348.54 363.752 1348.33 365.208 1348.33 366.904C1348.33 368.632 1348.54 370.104 1348.95 371.32C1349.37 372.536 1349.93 373.528 1350.63 374.296C1351.37 375.064 1352.22 375.64 1353.18 376.024C1354.14 376.376 1355.15 376.552 1356.2 376.552ZM1356.83 379.48C1355.03 379.48 1353.45 379.096 1352.07 378.328C1350.73 377.528 1349.63 376.44 1348.76 375.064V387.976H1344.68V354.856H1348.28L1348.57 359.128C1349.43 357.688 1350.55 356.536 1351.93 355.672C1353.34 354.808 1355.03 354.376 1357.02 354.376C1358.43 354.376 1359.77 354.632 1361.05 355.144C1362.33 355.656 1363.45 356.424 1364.41 357.448C1365.4 358.472 1366.19 359.784 1366.76 361.384C1367.34 362.952 1367.63 364.792 1367.63 366.904C1367.63 369.016 1367.32 370.872 1366.71 372.472C1366.14 374.04 1365.35 375.352 1364.36 376.408C1363.37 377.432 1362.22 378.2 1360.91 378.712C1359.63 379.224 1358.27 379.48 1356.83 379.48ZM1372.99 354.856H1377.07V373.528L1390.37 354.856H1394.11V379H1390.03V360.28L1376.79 379H1372.99V354.856ZM1416.72 367.96H1405.01V379H1400.93V354.856H1405.01V365.08H1416.72V354.856H1420.8V379H1416.72V367.96ZM1431.68 357.736V379H1427.6V354.856H1442V357.736H1431.68Z" fill="black"/>
<path d="M509 118H1070V191H509V118Z" fill="#F8CC46"/>
<path d="M571.424 171.48C569.056 171.48 566.992 171.16 565.232 170.52C563.472 169.88 562.208 169.192 561.44 168.456L562.88 165.48C564.224 166.408 565.52 167.096 566.768 167.544C568.016 167.96 569.472 168.168 571.136 168.168C572.192 168.168 573.184 168.04 574.112 167.784C575.04 167.496 575.84 167.064 576.512 166.488C577.216 165.88 577.76 165.128 578.144 164.232C578.56 163.304 578.768 162.216 578.768 160.968C578.768 158.792 578.128 157.24 576.848 156.312C575.568 155.352 573.696 154.872 571.232 154.872H566.912V151.608H571.28C573.488 151.608 575.12 151.144 576.176 150.216C577.232 149.256 577.76 147.864 577.76 146.04C577.76 144.12 577.2 142.744 576.08 141.912C574.96 141.08 573.44 140.664 571.52 140.664C569.888 140.664 568.464 140.872 567.248 141.288C566.032 141.672 564.864 142.28 563.744 143.112L562.112 139.512C563.264 138.872 564.592 138.328 566.096 137.88C567.6 137.432 569.408 137.208 571.52 137.208C574.88 137.208 577.504 137.928 579.392 139.368C581.28 140.808 582.224 142.92 582.224 145.704C582.224 149.576 580.288 152.008 576.416 153C581.056 153.864 583.376 156.536 583.376 161.016C583.376 162.776 583.056 164.312 582.416 165.624C581.808 166.936 580.96 168.024 579.872 168.888C578.784 169.752 577.504 170.408 576.032 170.856C574.592 171.272 573.056 171.48 571.424 171.48ZM596.06 168.504C597.756 168.504 599.1 168.088 600.092 167.256C601.116 166.392 601.868 165.416 602.348 164.328V159.768H600.236C597.132 159.768 594.892 160.104 593.516 160.776C592.172 161.416 591.5 162.664 591.5 164.52C591.5 165.832 591.948 166.824 592.844 167.496C593.772 168.168 594.844 168.504 596.06 168.504ZM603.116 171C602.988 170.552 602.876 170.024 602.78 169.416C602.684 168.808 602.604 168.152 602.54 167.448C602.252 167.928 601.9 168.408 601.484 168.888C601.1 169.368 600.62 169.8 600.044 170.184C599.468 170.568 598.78 170.872 597.98 171.096C597.18 171.352 596.252 171.48 595.196 171.48C594.14 171.48 593.148 171.336 592.22 171.048C591.292 170.76 590.46 170.328 589.724 169.752C589.02 169.176 588.46 168.472 588.044 167.64C587.628 166.808 587.42 165.848 587.42 164.76C587.42 162.136 588.46 160.232 590.54 159.048C592.652 157.832 595.756 157.224 599.852 157.224H602.348V155.256C602.348 153.304 601.932 151.848 601.1 150.888C600.268 149.928 598.796 149.448 596.684 149.448C595.244 149.448 593.932 149.72 592.748 150.264C591.596 150.776 590.572 151.4 589.676 152.136L588.572 148.776C588.956 148.488 589.452 148.2 590.06 147.912C590.668 147.624 591.356 147.368 592.124 147.144C592.892 146.92 593.708 146.744 594.572 146.616C595.436 146.456 596.316 146.376 597.212 146.376C600.252 146.376 602.54 147.048 604.076 148.392C605.644 149.704 606.428 151.8 606.428 154.68V167.112C606.428 167.656 606.46 168.344 606.524 169.176C606.588 169.976 606.668 170.584 606.764 171H603.116ZM617.082 149.736V171H613.002V146.856H627.402V149.736H617.082ZM644.022 168.552C646.166 168.552 647.894 167.8 649.206 166.296C650.55 164.76 651.222 162.296 651.222 158.904C651.222 155.576 650.55 153.144 649.206 151.608C647.894 150.04 646.166 149.256 644.022 149.256C642.966 149.256 641.958 149.448 640.998 149.832C640.038 150.184 639.19 150.76 638.454 151.56C637.75 152.328 637.19 153.32 636.774 154.536C636.358 155.752 636.15 157.208 636.15 158.904C636.15 160.632 636.358 162.104 636.774 163.32C637.19 164.536 637.75 165.528 638.454 166.296C639.19 167.064 640.038 167.64 640.998 168.024C641.958 168.376 642.966 168.552 644.022 168.552ZM644.646 171.48C642.854 171.48 641.27 171.096 639.894 170.328C638.55 169.528 637.446 168.44 636.582 167.064V179.976H632.502V146.856H636.102L636.39 151.128C637.254 149.688 638.374 148.536 639.75 147.672C641.158 146.808 642.854 146.376 644.838 146.376C646.246 146.376 647.59 146.632 648.87 147.144C650.15 147.656 651.27 148.424 652.23 149.448C653.222 150.472 654.006 151.784 654.582 153.384C655.158 154.952 655.446 156.792 655.446 158.904C655.446 161.016 655.142 162.872 654.534 164.472C653.958 166.04 653.174 167.352 652.182 168.408C651.19 169.432 650.038 170.2 648.726 170.712C647.446 171.224 646.086 171.48 644.646 171.48ZM662.74 180.408C662.004 180.408 661.332 180.344 660.724 180.216C660.148 180.12 659.636 179.992 659.188 179.832L659.716 176.52C660.1 176.68 660.532 176.824 661.012 176.952C661.492 177.08 662.004 177.144 662.548 177.144C663.444 177.144 664.26 176.856 664.996 176.28C665.732 175.704 666.532 174.68 667.396 173.208L657.844 146.856H662.26L669.604 167.928L676.948 146.856H680.644L672.1 170.712C671.524 172.28 670.932 173.656 670.324 174.84C669.716 176.056 669.044 177.064 668.308 177.864C667.572 178.696 666.74 179.32 665.812 179.736C664.916 180.184 663.892 180.408 662.74 180.408ZM690.769 171.48C689.137 171.48 687.633 171.272 686.257 170.856C684.881 170.44 683.825 169.944 683.089 169.368L684.193 166.584C685.025 167.16 686.033 167.624 687.217 167.976C688.401 168.296 689.633 168.456 690.913 168.456C692.481 168.456 693.793 168.12 694.849 167.448C695.905 166.744 696.433 165.576 696.433 163.944C696.433 161.32 694.545 160.008 690.769 160.008H687.553V156.84H690.913C692.481 156.84 693.649 156.52 694.417 155.88C695.217 155.208 695.617 154.296 695.617 153.144C695.617 152.44 695.489 151.848 695.233 151.368C694.977 150.856 694.625 150.456 694.177 150.168C693.729 149.848 693.201 149.624 692.593 149.496C692.017 149.336 691.377 149.256 690.673 149.256C689.489 149.256 688.417 149.464 687.457 149.88C686.529 150.296 685.617 150.84 684.721 151.512L683.665 148.44C684.433 147.832 685.441 147.336 686.689 146.952C687.937 146.568 689.377 146.376 691.009 146.376C693.665 146.376 695.713 146.92 697.153 148.008C698.625 149.064 699.361 150.616 699.361 152.664C699.361 154.232 698.913 155.48 698.017 156.408C697.121 157.304 696.001 157.88 694.657 158.136C698.497 158.776 700.417 160.792 700.417 164.184C700.417 165.496 700.145 166.616 699.601 167.544C699.089 168.44 698.385 169.192 697.489 169.8C696.625 170.376 695.601 170.792 694.417 171.048C693.265 171.336 692.049 171.48 690.769 171.48ZM720.692 171L710.612 158.136L720.548 146.856H724.82L714.98 157.656L725.492 171H720.692ZM709.988 146.856V171H705.908V146.856H709.988ZM736.451 168.504C738.147 168.504 739.491 168.088 740.483 167.256C741.507 166.392 742.259 165.416 742.739 164.328V159.768H740.627C737.523 159.768 735.283 160.104 733.907 160.776C732.563 161.416 731.891 162.664 731.891 164.52C731.891 165.832 732.339 166.824 733.235 167.496C734.163 168.168 735.235 168.504 736.451 168.504ZM743.507 171C743.379 170.552 743.267 170.024 743.171 169.416C743.075 168.808 742.995 168.152 742.931 167.448C742.643 167.928 742.291 168.408 741.875 168.888C741.491 169.368 741.011 169.8 740.435 170.184C739.859 170.568 739.171 170.872 738.371 171.096C737.571 171.352 736.643 171.48 735.587 171.48C734.531 171.48 733.539 171.336 732.611 171.048C731.683 170.76 730.851 170.328 730.115 169.752C729.411 169.176 728.851 168.472 728.435 167.64C728.019 166.808 727.811 165.848 727.811 164.76C727.811 162.136 728.851 160.232 730.931 159.048C733.043 157.832 736.147 157.224 740.243 157.224H742.739V155.256C742.739 153.304 742.323 151.848 741.491 150.888C740.659 149.928 739.187 149.448 737.075 149.448C735.635 149.448 734.323 149.72 733.139 150.264C731.987 150.776 730.963 151.4 730.067 152.136L728.963 148.776C729.347 148.488 729.843 148.2 730.451 147.912C731.059 147.624 731.747 147.368 732.515 147.144C733.283 146.92 734.099 146.744 734.963 146.616C735.827 146.456 736.707 146.376 737.603 146.376C740.643 146.376 742.931 147.048 744.467 148.392C746.035 149.704 746.819 151.8 746.819 154.68V167.112C746.819 167.656 746.851 168.344 746.915 169.176C746.979 169.976 747.059 170.584 747.155 171H743.507ZM778.536 171L768.456 158.136L778.392 146.856H782.664L772.824 157.656L783.336 171H778.536ZM767.832 146.856V171H763.752V146.856H767.832ZM796.85 171.48C795.282 171.48 793.794 171.208 792.386 170.664C790.978 170.088 789.746 169.272 788.69 168.216C787.634 167.128 786.786 165.816 786.146 164.28C785.538 162.712 785.234 160.92 785.234 158.904C785.234 156.888 785.538 155.112 786.146 153.576C786.786 152.008 787.634 150.696 788.69 149.64C789.746 148.584 790.978 147.784 792.386 147.24C793.794 146.664 795.282 146.376 796.85 146.376C798.418 146.376 799.906 146.664 801.314 147.24C802.754 147.784 804.002 148.584 805.058 149.64C806.146 150.696 807.01 152.008 807.65 153.576C808.29 155.112 808.61 156.888 808.61 158.904C808.61 160.92 808.29 162.712 807.65 164.28C807.01 165.816 806.146 167.128 805.058 168.216C804.002 169.272 802.754 170.088 801.314 170.664C799.906 171.208 798.418 171.48 796.85 171.48ZM796.85 168.456C797.81 168.456 798.738 168.296 799.634 167.976C800.562 167.624 801.378 167.064 802.082 166.296C802.786 165.528 803.346 164.536 803.762 163.32C804.21 162.104 804.434 160.632 804.434 158.904C804.434 157.176 804.21 155.72 803.762 154.536C803.346 153.32 802.786 152.328 802.082 151.56C801.378 150.792 800.562 150.248 799.634 149.928C798.738 149.576 797.81 149.4 796.85 149.4C795.89 149.4 794.962 149.576 794.066 149.928C793.202 150.248 792.418 150.792 791.714 151.56C791.01 152.328 790.45 153.32 790.034 154.536C789.618 155.72 789.41 157.176 789.41 158.904C789.41 160.632 789.618 162.104 790.034 163.32C790.45 164.536 791.01 165.528 791.714 166.296C792.418 167.064 793.202 167.624 794.066 167.976C794.962 168.296 795.89 168.456 796.85 168.456ZM818.226 152.28L816.978 171H813.57L815.202 146.856H820.098L826.29 163.512L832.962 146.856H837.666L839.298 171H835.314L834.066 152.28L827.442 168.312H824.418L818.226 152.28ZM860.953 149.736H849.769V171H845.689V146.856H865.033V171H860.953V149.736ZM882.022 171.48C880.454 171.48 878.966 171.208 877.558 170.664C876.15 170.088 874.918 169.272 873.862 168.216C872.806 167.128 871.958 165.816 871.318 164.28C870.71 162.712 870.406 160.92 870.406 158.904C870.406 156.888 870.71 155.112 871.318 153.576C871.958 152.008 872.806 150.696 873.862 149.64C874.918 148.584 876.15 147.784 877.558 147.24C878.966 146.664 880.454 146.376 882.022 146.376C883.59 146.376 885.078 146.664 886.486 147.24C887.926 147.784 889.174 148.584 890.23 149.64C891.318 150.696 892.182 152.008 892.822 153.576C893.462 155.112 893.782 156.888 893.782 158.904C893.782 160.92 893.462 162.712 892.822 164.28C892.182 165.816 891.318 167.128 890.23 168.216C889.174 169.272 887.926 170.088 886.486 170.664C885.078 171.208 883.59 171.48 882.022 171.48ZM882.022 168.456C882.982 168.456 883.91 168.296 884.806 167.976C885.734 167.624 886.55 167.064 887.254 166.296C887.958 165.528 888.518 164.536 888.934 163.32C889.382 162.104 889.606 160.632 889.606 158.904C889.606 157.176 889.382 155.72 888.934 154.536C888.518 153.32 887.958 152.328 887.254 151.56C886.55 150.792 885.734 150.248 884.806 149.928C883.91 149.576 882.982 149.4 882.022 149.4C881.062 149.4 880.134 149.576 879.238 149.928C878.374 150.248 877.59 150.792 876.886 151.56C876.182 152.328 875.622 153.32 875.206 154.536C874.79 155.72 874.582 157.176 874.582 158.904C874.582 160.632 874.79 162.104 875.206 163.32C875.622 164.536 876.182 165.528 876.886 166.296C877.59 167.064 878.374 167.624 879.238 167.976C880.134 168.296 881.062 168.456 882.022 168.456ZM914.966 159.96H903.254V171H899.174V146.856H903.254V157.08H914.966V146.856H919.046V171H914.966V159.96ZM935.494 149.304C933.766 149.304 932.278 149.912 931.03 151.128C929.814 152.344 929.046 154.184 928.726 156.648H940.966C941.158 154.152 940.726 152.312 939.67 151.128C938.646 149.912 937.254 149.304 935.494 149.304ZM944.374 168.936C943.51 169.672 942.39 170.28 941.014 170.76C939.638 171.24 938.07 171.48 936.31 171.48C932.47 171.48 929.526 170.392 927.478 168.216C925.43 166.008 924.406 162.904 924.406 158.904C924.406 156.952 924.694 155.208 925.27 153.672C925.846 152.104 926.63 150.776 927.622 149.688C928.646 148.6 929.83 147.784 931.174 147.24C932.55 146.664 934.022 146.376 935.59 146.376C937.222 146.376 938.678 146.664 939.958 147.24C941.27 147.784 942.342 148.616 943.174 149.736C944.038 150.824 944.614 152.2 944.902 153.864C945.222 155.496 945.222 157.384 944.902 159.528H928.582C928.774 165.32 931.478 168.216 936.694 168.216C938.07 168.216 939.302 168.008 940.39 167.592C941.478 167.176 942.486 166.648 943.414 166.008L944.374 168.936ZM966.294 159.96H954.582V171H950.502V146.856H954.582V157.08H966.294V146.856H970.374V171H966.294V159.96ZM986.678 149.736V171H982.55V149.736H975.206V146.856H994.166V149.736H986.678ZM1005.47 168.504C1007.16 168.504 1008.51 168.088 1009.5 167.256C1010.52 166.392 1011.27 165.416 1011.75 164.328V159.768H1009.64C1006.54 159.768 1004.3 160.104 1002.92 160.776C1001.58 161.416 1000.91 162.664 1000.91 164.52C1000.91 165.832 1001.35 166.824 1002.25 167.496C1003.18 168.168 1004.25 168.504 1005.47 168.504ZM1012.52 171C1012.39 170.552 1012.28 170.024 1012.19 169.416C1012.09 168.808 1012.01 168.152 1011.95 167.448C1011.66 167.928 1011.31 168.408 1010.89 168.888C1010.51 169.368 1010.03 169.8 1009.45 170.184C1008.87 170.568 1008.19 170.872 1007.39 171.096C1006.59 171.352 1005.66 171.48 1004.6 171.48C1003.55 171.48 1002.55 171.336 1001.63 171.048C1000.7 170.76 999.866 170.328 999.13 169.752C998.426 169.176 997.866 168.472 997.45 167.64C997.034 166.808 996.826 165.848 996.826 164.76C996.826 162.136 997.866 160.232 999.946 159.048C1002.06 157.832 1005.16 157.224 1009.26 157.224H1011.75V155.256C1011.75 153.304 1011.34 151.848 1010.51 150.888C1009.67 149.928 1008.2 149.448 1006.09 149.448C1004.65 149.448 1003.34 149.72 1002.15 150.264C1001 150.776 999.978 151.4 999.082 152.136L997.978 148.776C998.362 148.488 998.858 148.2 999.466 147.912C1000.07 147.624 1000.76 147.368 1001.53 147.144C1002.3 146.92 1003.11 146.744 1003.98 146.616C1004.84 146.456 1005.72 146.376 1006.62 146.376C1009.66 146.376 1011.95 147.048 1013.48 148.392C1015.05 149.704 1015.83 151.8 1015.83 154.68V167.112C1015.83 167.656 1015.87 168.344 1015.93 169.176C1015.99 169.976 1016.07 170.584 1016.17 171H1012.52Z" fill="black"/>
<line x1="506.5" y1="2" x2="506.5" y2="414" stroke="#EB483F" stroke-width="5" stroke-dasharray="2 5"/>
<line x1="2.50018" y1="2" x2="2.50018" y2="414" stroke="#EB483F" stroke-width="5" stroke-dasharray="2 5"/>
<line x1="1072.5" y1="2" x2="1072.5" y2="414" stroke="#EB483F" stroke-width="5" stroke-dasharray="2 5"/>
<line x1="1581.5" y1="2" x2="1581.5" y2="414" stroke="#EB483F" stroke-width="5" stroke-dasharray="2 5"/>
<line y1="101" x2="1579" y2="101" stroke="#AAAAAA" stroke-width="2"/>
<line x1="0.000183105" y1="310" x2="1579" y2="310" stroke="#AAAAAA" stroke-width="2"/>
<line x1="0.000183105" y1="207" x2="1579" y2="207" stroke="#AAAAAA" stroke-width="2"/>
<line y1="413" x2="1579" y2="413" stroke="#AAAAAA" stroke-width="2"/>
<line y1="1" x2="1579" y2="1" stroke="#AAAAAA" stroke-width="2"/>
</svg>
