<svg width="2093" height="414" viewBox="0 0 2093 414" fill="none" xmlns="http://www.w3.org/2000/svg">
<path d="M0 17H504V90H0V17Z" fill="#F8CC46"/>
<path d="M70.1854 39.904H53.9134V70H49.4974V36.64H74.6014V70H70.1854V39.904ZM91.5248 48.304C89.7968 48.304 88.3088 48.912 87.0608 50.128C85.8448 51.344 85.0768 53.184 84.7568 55.648H96.9968C97.1888 53.152 96.7568 51.312 95.7008 50.128C94.6768 48.912 93.2848 48.304 91.5248 48.304ZM100.405 67.936C99.5408 68.672 98.4208 69.28 97.0448 69.76C95.6688 70.24 94.1008 70.48 92.3408 70.48C88.5008 70.48 85.5568 69.392 83.5088 67.216C81.4608 65.008 80.4368 61.904 80.4368 57.904C80.4368 55.952 80.7248 54.208 81.3008 52.672C81.8768 51.104 82.6608 49.776 83.6528 48.688C84.6768 47.6 85.8608 46.784 87.2048 46.24C88.5808 45.664 90.0528 45.376 91.6208 45.376C93.2528 45.376 94.7088 45.664 95.9888 46.24C97.3008 46.784 98.3728 47.616 99.2048 48.736C100.069 49.824 100.645 51.2 100.933 52.864C101.253 54.496 101.253 56.384 100.933 58.528H84.6128C84.8048 64.32 87.5088 67.216 92.7248 67.216C94.1008 67.216 95.3328 67.008 96.4208 66.592C97.5088 66.176 98.5168 65.648 99.4448 65.008L100.405 67.936ZM118.053 67.552C120.197 67.552 121.925 66.8 123.237 65.296C124.581 63.76 125.253 61.296 125.253 57.904C125.253 54.576 124.581 52.144 123.237 50.608C121.925 49.04 120.197 48.256 118.053 48.256C116.997 48.256 115.989 48.448 115.029 48.832C114.069 49.184 113.221 49.76 112.485 50.56C111.781 51.328 111.221 52.32 110.805 53.536C110.389 54.752 110.181 56.208 110.181 57.904C110.181 59.632 110.389 61.104 110.805 62.32C111.221 63.536 111.781 64.528 112.485 65.296C113.221 66.064 114.069 66.64 115.029 67.024C115.989 67.376 116.997 67.552 118.053 67.552ZM118.677 70.48C116.885 70.48 115.301 70.096 113.925 69.328C112.581 68.528 111.477 67.44 110.613 66.064V78.976H106.533V45.856H110.133L110.421 50.128C111.285 48.688 112.405 47.536 113.781 46.672C115.189 45.808 116.885 45.376 118.869 45.376C120.277 45.376 121.621 45.632 122.901 46.144C124.181 46.656 125.301 47.424 126.261 48.448C127.253 49.472 128.037 50.784 128.613 52.384C129.189 53.952 129.477 55.792 129.477 57.904C129.477 60.016 129.173 61.872 128.565 63.472C127.989 65.04 127.205 66.352 126.213 67.408C125.221 68.432 124.069 69.2 122.757 69.712C121.477 70.224 120.117 70.48 118.677 70.48ZM144.494 48.304C142.766 48.304 141.278 48.912 140.03 50.128C138.814 51.344 138.046 53.184 137.726 55.648H149.966C150.158 53.152 149.726 51.312 148.67 50.128C147.646 48.912 146.254 48.304 144.494 48.304ZM153.374 67.936C152.51 68.672 151.39 69.28 150.014 69.76C148.638 70.24 147.07 70.48 145.31 70.48C141.47 70.48 138.526 69.392 136.478 67.216C134.43 65.008 133.406 61.904 133.406 57.904C133.406 55.952 133.694 54.208 134.27 52.672C134.846 51.104 135.63 49.776 136.622 48.688C137.646 47.6 138.83 46.784 140.174 46.24C141.55 45.664 143.022 45.376 144.59 45.376C146.222 45.376 147.678 45.664 148.958 46.24C150.27 46.784 151.342 47.616 152.174 48.736C153.038 49.824 153.614 51.2 153.902 52.864C154.222 54.496 154.222 56.384 153.902 58.528H137.582C137.774 64.32 140.478 67.216 145.694 67.216C147.07 67.216 148.302 67.008 149.39 66.592C150.478 66.176 151.486 65.648 152.414 65.008L153.374 67.936ZM167.187 60.208L160.467 70H156.627L165.363 57.472L157.635 45.856H162.531L168.387 54.592L174.387 45.856H178.227L170.211 57.376L178.611 70H173.763L167.187 60.208ZM192.037 70.48C190.469 70.48 188.981 70.208 187.573 69.664C186.165 69.088 184.933 68.272 183.877 67.216C182.821 66.128 181.973 64.816 181.333 63.28C180.725 61.712 180.421 59.92 180.421 57.904C180.421 55.888 180.725 54.112 181.333 52.576C181.973 51.008 182.821 49.696 183.877 48.64C184.933 47.584 186.165 46.784 187.573 46.24C188.981 45.664 190.469 45.376 192.037 45.376C193.605 45.376 195.093 45.664 196.501 46.24C197.941 46.784 199.189 47.584 200.245 48.64C201.333 49.696 202.197 51.008 202.837 52.576C203.477 54.112 203.797 55.888 203.797 57.904C203.797 59.92 203.477 61.712 202.837 63.28C202.197 64.816 201.333 66.128 200.245 67.216C199.189 68.272 197.941 69.088 196.501 69.664C195.093 70.208 193.605 70.48 192.037 70.48ZM192.037 67.456C192.997 67.456 193.925 67.296 194.821 66.976C195.749 66.624 196.565 66.064 197.269 65.296C197.973 64.528 198.533 63.536 198.949 62.32C199.397 61.104 199.621 59.632 199.621 57.904C199.621 56.176 199.397 54.72 198.949 53.536C198.533 52.32 197.973 51.328 197.269 50.56C196.565 49.792 195.749 49.248 194.821 48.928C193.925 48.576 192.997 48.4 192.037 48.4C191.077 48.4 190.149 48.576 189.253 48.928C188.389 49.248 187.605 49.792 186.901 50.56C186.197 51.328 185.637 52.32 185.221 53.536C184.805 54.72 184.597 56.176 184.597 57.904C184.597 59.632 184.805 61.104 185.221 62.32C185.637 63.536 186.197 64.528 186.901 65.296C187.605 66.064 188.389 66.624 189.253 66.976C190.149 67.296 191.077 67.456 192.037 67.456ZM212.987 65.344C212.731 65.92 212.395 66.464 211.979 66.976H224.267V48.736H215.291C215.131 52.896 214.891 56.32 214.571 59.008C214.251 61.664 213.723 63.776 212.987 65.344ZM228.011 70H209.819L208.955 77.632H205.835V66.976H207.563C208.715 66.272 209.579 64.992 210.155 63.136C210.731 61.312 211.115 58.976 211.307 56.128C211.499 53.248 211.643 49.824 211.739 45.856H228.347V66.976H231.995V77.632H228.875L228.011 70ZM262.469 48.736H251.285V70H247.205V45.856H266.549V70H262.469V48.736ZM283.537 70.48C281.969 70.48 280.481 70.208 279.073 69.664C277.665 69.088 276.433 68.272 275.377 67.216C274.321 66.128 273.473 64.816 272.833 63.28C272.225 61.712 271.921 59.92 271.921 57.904C271.921 55.888 272.225 54.112 272.833 52.576C273.473 51.008 274.321 49.696 275.377 48.64C276.433 47.584 277.665 46.784 279.073 46.24C280.481 45.664 281.969 45.376 283.537 45.376C285.105 45.376 286.593 45.664 288.001 46.24C289.441 46.784 290.689 47.584 291.745 48.64C292.833 49.696 293.697 51.008 294.337 52.576C294.977 54.112 295.297 55.888 295.297 57.904C295.297 59.92 294.977 61.712 294.337 63.28C293.697 64.816 292.833 66.128 291.745 67.216C290.689 68.272 289.441 69.088 288.001 69.664C286.593 70.208 285.105 70.48 283.537 70.48ZM283.537 67.456C284.497 67.456 285.425 67.296 286.321 66.976C287.249 66.624 288.065 66.064 288.769 65.296C289.473 64.528 290.033 63.536 290.449 62.32C290.897 61.104 291.121 59.632 291.121 57.904C291.121 56.176 290.897 54.72 290.449 53.536C290.033 52.32 289.473 51.328 288.769 50.56C288.065 49.792 287.249 49.248 286.321 48.928C285.425 48.576 284.497 48.4 283.537 48.4C282.577 48.4 281.649 48.576 280.753 48.928C279.889 49.248 279.105 49.792 278.401 50.56C277.697 51.328 277.137 52.32 276.721 53.536C276.305 54.72 276.097 56.176 276.097 57.904C276.097 59.632 276.305 61.104 276.721 62.32C277.137 63.536 277.697 64.528 278.401 65.296C279.105 66.064 279.889 66.624 280.753 66.976C281.649 67.296 282.577 67.456 283.537 67.456ZM321.561 70.48C319.897 70.48 318.329 70.208 316.857 69.664C315.417 69.088 314.153 68.256 313.065 67.168C312.009 66.08 311.161 64.768 310.521 63.232C309.913 61.664 309.609 59.888 309.609 57.904C309.609 55.952 309.913 54.208 310.521 52.672C311.161 51.104 312.025 49.776 313.113 48.688C314.233 47.6 315.545 46.784 317.049 46.24C318.553 45.664 320.169 45.376 321.897 45.376C323.337 45.376 324.633 45.52 325.785 45.808C326.937 46.096 327.897 46.496 328.665 47.008L327.465 50.656C326.537 49.984 325.625 49.472 324.729 49.12C323.865 48.736 322.825 48.544 321.609 48.544C320.553 48.544 319.545 48.752 318.585 49.168C317.625 49.552 316.793 50.144 316.089 50.944C315.385 51.712 314.825 52.688 314.409 53.872C313.993 55.024 313.785 56.368 313.785 57.904C313.785 61.04 314.537 63.376 316.041 64.912C317.545 66.448 319.593 67.216 322.185 67.216C323.049 67.216 323.977 67.056 324.969 66.736C325.993 66.416 326.921 65.952 327.753 65.344L328.665 68.368C327.833 69.008 326.809 69.52 325.593 69.904C324.409 70.288 323.065 70.48 321.561 70.48ZM344.342 70.48C342.678 70.48 341.11 70.208 339.638 69.664C338.198 69.088 336.934 68.256 335.846 67.168C334.79 66.08 333.942 64.768 333.302 63.232C332.694 61.664 332.39 59.888 332.39 57.904C332.39 55.952 332.694 54.208 333.302 52.672C333.942 51.104 334.806 49.776 335.894 48.688C337.014 47.6 338.326 46.784 339.83 46.24C341.334 45.664 342.95 45.376 344.678 45.376C346.118 45.376 347.414 45.52 348.566 45.808C349.718 46.096 350.678 46.496 351.446 47.008L350.246 50.656C349.318 49.984 348.406 49.472 347.51 49.12C346.646 48.736 345.606 48.544 344.39 48.544C343.334 48.544 342.326 48.752 341.366 49.168C340.406 49.552 339.574 50.144 338.87 50.944C338.166 51.712 337.606 52.688 337.19 53.872C336.774 55.024 336.566 56.368 336.566 57.904C336.566 61.04 337.318 63.376 338.822 64.912C340.326 66.448 342.374 67.216 344.966 67.216C345.83 67.216 346.758 67.056 347.75 66.736C348.774 66.416 349.702 65.952 350.534 65.344L351.446 68.368C350.614 69.008 349.59 69.52 348.374 69.904C347.19 70.288 345.846 70.48 344.342 70.48ZM382.051 70H377.971V45.856H382.051V70ZM360.691 56.464V67.12H364.387C366.147 67.12 367.571 66.672 368.659 65.776C369.779 64.88 370.339 63.52 370.339 61.696C370.339 59.84 369.843 58.512 368.851 57.712C367.859 56.88 366.467 56.464 364.675 56.464H360.691ZM356.611 45.856H360.691V53.584H364.675C367.779 53.584 370.179 54.224 371.875 55.504C373.603 56.752 374.467 58.736 374.467 61.456C374.467 62.864 374.211 64.112 373.699 65.2C373.219 66.256 372.531 67.152 371.635 67.888C370.739 68.592 369.667 69.12 368.419 69.472C367.203 69.824 365.859 70 364.387 70H356.611V45.856ZM394.045 63.616C393.565 65.6 392.749 67.184 391.597 68.368C390.445 69.552 388.781 70.112 386.605 70.048L386.077 66.688C387.197 66.752 388.141 66.416 388.909 65.68C389.709 64.912 390.269 63.856 390.589 62.512C390.845 61.456 391.037 60.368 391.165 59.248C391.325 58.128 391.453 56.928 391.549 55.648C391.645 54.336 391.709 52.88 391.741 51.28C391.805 49.68 391.853 47.872 391.885 45.856H407.389V70H403.261L403.165 48.736H395.437C395.405 50.272 395.357 51.712 395.293 53.056C395.261 54.368 395.197 55.632 395.101 56.848C395.005 58.032 394.861 59.184 394.669 60.304C394.509 61.392 394.301 62.496 394.045 63.616ZM429.005 70L418.925 57.136L428.861 45.856H433.133L423.293 56.656L433.805 70H429.005ZM418.301 45.856V70H414.221V45.856H418.301ZM446.79 48.304C445.062 48.304 443.574 48.912 442.326 50.128C441.11 51.344 440.342 53.184 440.022 55.648H452.262C452.454 53.152 452.022 51.312 450.966 50.128C449.942 48.912 448.55 48.304 446.79 48.304ZM455.67 67.936C454.806 68.672 453.686 69.28 452.31 69.76C450.934 70.24 449.366 70.48 447.606 70.48C443.766 70.48 440.822 69.392 438.774 67.216C436.726 65.008 435.702 61.904 435.702 57.904C435.702 55.952 435.99 54.208 436.566 52.672C437.142 51.104 437.926 49.776 438.918 48.688C439.942 47.6 441.126 46.784 442.47 46.24C443.846 45.664 445.318 45.376 446.886 45.376C448.518 45.376 449.974 45.664 451.254 46.24C452.566 46.784 453.638 47.616 454.47 48.736C455.334 49.824 455.91 51.2 456.198 52.864C456.518 54.496 456.518 56.384 456.198 58.528H439.878C440.07 64.32 442.774 67.216 447.99 67.216C449.366 67.216 450.598 67.008 451.686 66.592C452.774 66.176 453.782 65.648 454.71 65.008L455.67 67.936Z" fill="black"/>
<path d="M1075 223H1579V296H1075V223Z" fill="#F8CC46"/>
<path d="M1157.81 276.48C1155.45 276.48 1153.38 276.16 1151.62 275.52C1149.86 274.88 1148.6 274.192 1147.83 273.456L1149.27 270.48C1150.61 271.408 1151.91 272.096 1153.16 272.544C1154.41 272.96 1155.86 273.168 1157.53 273.168C1158.58 273.168 1159.57 273.04 1160.5 272.784C1161.43 272.496 1162.23 272.064 1162.9 271.488C1163.61 270.88 1164.15 270.128 1164.53 269.232C1164.95 268.304 1165.16 267.216 1165.16 265.968C1165.16 263.792 1164.52 262.24 1163.24 261.312C1161.96 260.352 1160.09 259.872 1157.62 259.872H1153.3V256.608H1157.67C1159.88 256.608 1161.51 256.144 1162.57 255.216C1163.62 254.256 1164.15 252.864 1164.15 251.04C1164.15 249.12 1163.59 247.744 1162.47 246.912C1161.35 246.08 1159.83 245.664 1157.91 245.664C1156.28 245.664 1154.85 245.872 1153.64 246.288C1152.42 246.672 1151.25 247.28 1150.13 248.112L1148.5 244.512C1149.65 243.872 1150.98 243.328 1152.49 242.88C1153.99 242.432 1155.8 242.208 1157.91 242.208C1161.27 242.208 1163.89 242.928 1165.78 244.368C1167.67 245.808 1168.61 247.92 1168.61 250.704C1168.61 254.576 1166.68 257.008 1162.81 258C1167.45 258.864 1169.77 261.536 1169.77 266.016C1169.77 267.776 1169.45 269.312 1168.81 270.624C1168.2 271.936 1167.35 273.024 1166.26 273.888C1165.17 274.752 1163.89 275.408 1162.42 275.856C1160.98 276.272 1159.45 276.48 1157.81 276.48ZM1182.45 273.504C1184.15 273.504 1185.49 273.088 1186.48 272.256C1187.51 271.392 1188.26 270.416 1188.74 269.328V264.768H1186.63C1183.52 264.768 1181.28 265.104 1179.91 265.776C1178.56 266.416 1177.89 267.664 1177.89 269.52C1177.89 270.832 1178.34 271.824 1179.23 272.496C1180.16 273.168 1181.23 273.504 1182.45 273.504ZM1189.51 276C1189.38 275.552 1189.27 275.024 1189.17 274.416C1189.07 273.808 1188.99 273.152 1188.93 272.448C1188.64 272.928 1188.29 273.408 1187.87 273.888C1187.49 274.368 1187.01 274.8 1186.43 275.184C1185.86 275.568 1185.17 275.872 1184.37 276.096C1183.57 276.352 1182.64 276.48 1181.59 276.48C1180.53 276.48 1179.54 276.336 1178.61 276.048C1177.68 275.76 1176.85 275.328 1176.11 274.752C1175.41 274.176 1174.85 273.472 1174.43 272.64C1174.02 271.808 1173.81 270.848 1173.81 269.76C1173.81 267.136 1174.85 265.232 1176.93 264.048C1179.04 262.832 1182.15 262.224 1186.24 262.224H1188.74V260.256C1188.74 258.304 1188.32 256.848 1187.49 255.888C1186.66 254.928 1185.19 254.448 1183.07 254.448C1181.63 254.448 1180.32 254.72 1179.14 255.264C1177.99 255.776 1176.96 256.4 1176.07 257.136L1174.96 253.776C1175.35 253.488 1175.84 253.2 1176.45 252.912C1177.06 252.624 1177.75 252.368 1178.51 252.144C1179.28 251.92 1180.1 251.744 1180.96 251.616C1181.83 251.456 1182.71 251.376 1183.6 251.376C1186.64 251.376 1188.93 252.048 1190.47 253.392C1192.03 254.704 1192.82 256.8 1192.82 259.68V272.112C1192.82 272.656 1192.85 273.344 1192.91 274.176C1192.98 274.976 1193.06 275.584 1193.15 276H1189.51ZM1203.47 254.736V276H1199.39V251.856H1213.79V254.736H1203.47ZM1230.41 273.552C1232.56 273.552 1234.28 272.8 1235.6 271.296C1236.94 269.76 1237.61 267.296 1237.61 263.904C1237.61 260.576 1236.94 258.144 1235.6 256.608C1234.28 255.04 1232.56 254.256 1230.41 254.256C1229.36 254.256 1228.35 254.448 1227.39 254.832C1226.43 255.184 1225.58 255.76 1224.84 256.56C1224.14 257.328 1223.58 258.32 1223.16 259.536C1222.75 260.752 1222.54 262.208 1222.54 263.904C1222.54 265.632 1222.75 267.104 1223.16 268.32C1223.58 269.536 1224.14 270.528 1224.84 271.296C1225.58 272.064 1226.43 272.64 1227.39 273.024C1228.35 273.376 1229.36 273.552 1230.41 273.552ZM1231.04 276.48C1229.24 276.48 1227.66 276.096 1226.28 275.328C1224.94 274.528 1223.84 273.44 1222.97 272.064V284.976H1218.89V251.856H1222.49L1222.78 256.128C1223.64 254.688 1224.76 253.536 1226.14 252.672C1227.55 251.808 1229.24 251.376 1231.23 251.376C1232.64 251.376 1233.98 251.632 1235.26 252.144C1236.54 252.656 1237.66 253.424 1238.62 254.448C1239.61 255.472 1240.4 256.784 1240.97 258.384C1241.55 259.952 1241.84 261.792 1241.84 263.904C1241.84 266.016 1241.53 267.872 1240.92 269.472C1240.35 271.04 1239.56 272.352 1238.57 273.408C1237.58 274.432 1236.43 275.2 1235.12 275.712C1233.84 276.224 1232.48 276.48 1231.04 276.48ZM1249.13 285.408C1248.39 285.408 1247.72 285.344 1247.11 285.216C1246.54 285.12 1246.03 284.992 1245.58 284.832L1246.11 281.52C1246.49 281.68 1246.92 281.824 1247.4 281.952C1247.88 282.08 1248.39 282.144 1248.94 282.144C1249.83 282.144 1250.65 281.856 1251.39 281.28C1252.12 280.704 1252.92 279.68 1253.79 278.208L1244.23 251.856H1248.65L1255.99 272.928L1263.34 251.856H1267.03L1258.49 275.712C1257.91 277.28 1257.32 278.656 1256.71 279.84C1256.11 281.056 1255.43 282.064 1254.7 282.864C1253.96 283.696 1253.13 284.32 1252.2 284.736C1251.31 285.184 1250.28 285.408 1249.13 285.408ZM1277.16 276.48C1275.53 276.48 1274.02 276.272 1272.65 275.856C1271.27 275.44 1270.22 274.944 1269.48 274.368L1270.58 271.584C1271.42 272.16 1272.42 272.624 1273.61 272.976C1274.79 273.296 1276.02 273.456 1277.3 273.456C1278.87 273.456 1280.18 273.12 1281.24 272.448C1282.3 271.744 1282.82 270.576 1282.82 268.944C1282.82 266.32 1280.94 265.008 1277.16 265.008H1273.94V261.84H1277.3C1278.87 261.84 1280.04 261.52 1280.81 260.88C1281.61 260.208 1282.01 259.296 1282.01 258.144C1282.01 257.44 1281.88 256.848 1281.62 256.368C1281.37 255.856 1281.02 255.456 1280.57 255.168C1280.12 254.848 1279.59 254.624 1278.98 254.496C1278.41 254.336 1277.77 254.256 1277.06 254.256C1275.88 254.256 1274.81 254.464 1273.85 254.88C1272.92 255.296 1272.01 255.84 1271.11 256.512L1270.06 253.44C1270.82 252.832 1271.83 252.336 1273.08 251.952C1274.33 251.568 1275.77 251.376 1277.4 251.376C1280.06 251.376 1282.1 251.92 1283.54 253.008C1285.02 254.064 1285.75 255.616 1285.75 257.664C1285.75 259.232 1285.3 260.48 1284.41 261.408C1283.51 262.304 1282.39 262.88 1281.05 263.136C1284.89 263.776 1286.81 265.792 1286.81 269.184C1286.81 270.496 1286.54 271.616 1285.99 272.544C1285.48 273.44 1284.78 274.192 1283.88 274.8C1283.02 275.376 1281.99 275.792 1280.81 276.048C1279.66 276.336 1278.44 276.48 1277.16 276.48ZM1307.08 276L1297 263.136L1306.94 251.856H1311.21L1301.37 262.656L1311.88 276H1307.08ZM1296.38 251.856V276H1292.3V251.856H1296.38ZM1322.84 273.504C1324.54 273.504 1325.88 273.088 1326.87 272.256C1327.9 271.392 1328.65 270.416 1329.13 269.328V264.768H1327.02C1323.91 264.768 1321.67 265.104 1320.3 265.776C1318.95 266.416 1318.28 267.664 1318.28 269.52C1318.28 270.832 1318.73 271.824 1319.63 272.496C1320.55 273.168 1321.63 273.504 1322.84 273.504ZM1329.9 276C1329.77 275.552 1329.66 275.024 1329.56 274.416C1329.47 273.808 1329.39 273.152 1329.32 272.448C1329.03 272.928 1328.68 273.408 1328.27 273.888C1327.88 274.368 1327.4 274.8 1326.83 275.184C1326.25 275.568 1325.56 275.872 1324.76 276.096C1323.96 276.352 1323.03 276.48 1321.98 276.48C1320.92 276.48 1319.93 276.336 1319 276.048C1318.07 275.76 1317.24 275.328 1316.51 274.752C1315.8 274.176 1315.24 273.472 1314.83 272.64C1314.41 271.808 1314.2 270.848 1314.2 269.76C1314.2 267.136 1315.24 265.232 1317.32 264.048C1319.43 262.832 1322.54 262.224 1326.63 262.224H1329.13V260.256C1329.13 258.304 1328.71 256.848 1327.88 255.888C1327.05 254.928 1325.58 254.448 1323.47 254.448C1322.03 254.448 1320.71 254.72 1319.53 255.264C1318.38 255.776 1317.35 256.4 1316.46 257.136L1315.35 253.776C1315.74 253.488 1316.23 253.2 1316.84 252.912C1317.45 252.624 1318.14 252.368 1318.91 252.144C1319.67 251.92 1320.49 251.744 1321.35 251.616C1322.22 251.456 1323.1 251.376 1323.99 251.376C1327.03 251.376 1329.32 252.048 1330.86 253.392C1332.43 254.704 1333.21 256.8 1333.21 259.68V272.112C1333.21 272.656 1333.24 273.344 1333.31 274.176C1333.37 274.976 1333.45 275.584 1333.55 276H1329.9ZM1354.17 271.344C1353.92 271.92 1353.58 272.464 1353.17 272.976H1365.45V254.736H1356.48C1356.32 258.896 1356.08 262.32 1355.76 265.008C1355.44 267.664 1354.91 269.776 1354.17 271.344ZM1369.2 276H1351.01L1350.14 283.632H1347.02V272.976H1348.75C1349.9 272.272 1350.77 270.992 1351.34 269.136C1351.92 267.312 1352.3 264.976 1352.49 262.128C1352.69 259.248 1352.83 255.824 1352.93 251.856H1369.53V272.976H1373.18V283.632H1370.06L1369.2 276ZM1384.95 273.504C1386.65 273.504 1387.99 273.088 1388.98 272.256C1390.01 271.392 1390.76 270.416 1391.24 269.328V264.768H1389.13C1386.02 264.768 1383.78 265.104 1382.41 265.776C1381.06 266.416 1380.39 267.664 1380.39 269.52C1380.39 270.832 1380.84 271.824 1381.73 272.496C1382.66 273.168 1383.73 273.504 1384.95 273.504ZM1392.01 276C1391.88 275.552 1391.77 275.024 1391.67 274.416C1391.57 273.808 1391.49 273.152 1391.43 272.448C1391.14 272.928 1390.79 273.408 1390.37 273.888C1389.99 274.368 1389.51 274.8 1388.93 275.184C1388.36 275.568 1387.67 275.872 1386.87 276.096C1386.07 276.352 1385.14 276.48 1384.09 276.48C1383.03 276.48 1382.04 276.336 1381.11 276.048C1380.18 275.76 1379.35 275.328 1378.61 274.752C1377.91 274.176 1377.35 273.472 1376.93 272.64C1376.52 271.808 1376.31 270.848 1376.31 269.76C1376.31 267.136 1377.35 265.232 1379.43 264.048C1381.54 262.832 1384.65 262.224 1388.74 262.224H1391.24V260.256C1391.24 258.304 1390.82 256.848 1389.99 255.888C1389.16 254.928 1387.69 254.448 1385.57 254.448C1384.13 254.448 1382.82 254.72 1381.64 255.264C1380.49 255.776 1379.46 256.4 1378.57 257.136L1377.46 253.776C1377.85 253.488 1378.34 253.2 1378.95 252.912C1379.56 252.624 1380.25 252.368 1381.01 252.144C1381.78 251.92 1382.6 251.744 1383.46 251.616C1384.33 251.456 1385.21 251.376 1386.1 251.376C1389.14 251.376 1391.43 252.048 1392.97 253.392C1394.53 254.704 1395.32 256.8 1395.32 259.68V272.112C1395.32 272.656 1395.35 273.344 1395.41 274.176C1395.48 274.976 1395.56 275.584 1395.65 276H1392.01ZM1417.68 264.96H1405.97V276H1401.89V251.856H1405.97V262.08H1417.68V251.856H1421.76V276H1417.68V264.96ZM1444.36 264.96H1432.64V276H1428.56V251.856H1432.64V262.08H1444.36V251.856H1448.44V276H1444.36V264.96ZM1480.68 276H1476.6V251.856H1480.68V276ZM1459.32 262.464V273.12H1463.01C1464.77 273.12 1466.2 272.672 1467.28 271.776C1468.4 270.88 1468.96 269.52 1468.96 267.696C1468.96 265.84 1468.47 264.512 1467.48 263.712C1466.48 262.88 1465.09 262.464 1463.3 262.464H1459.32ZM1455.24 251.856H1459.32V259.584H1463.3C1466.4 259.584 1468.8 260.224 1470.5 261.504C1472.23 262.752 1473.09 264.736 1473.09 267.456C1473.09 268.864 1472.84 270.112 1472.32 271.2C1471.84 272.256 1471.16 273.152 1470.26 273.888C1469.36 274.592 1468.29 275.12 1467.04 275.472C1465.83 275.824 1464.48 276 1463.01 276H1455.24V251.856ZM1495.41 266.208L1488.69 276H1484.85L1493.58 263.472L1485.85 251.856H1490.75L1496.61 260.592L1502.61 251.856H1506.45L1498.43 263.376L1506.83 276H1501.98L1495.41 266.208Z" fill="black"/>
<path d="M1584 326H2088V399H1584V326Z" fill="#F8CC46"/>
<path d="M1727.61 348.904V363.688H1733.37C1734.55 363.688 1735.62 363.528 1736.58 363.208C1737.58 362.856 1738.42 362.344 1739.13 361.672C1739.86 361 1740.42 360.168 1740.81 359.176C1741.22 358.184 1741.43 357.016 1741.43 355.672C1741.43 353.432 1740.74 351.752 1739.37 350.632C1738.02 349.48 1736.15 348.904 1733.75 348.904H1727.61ZM1727.61 366.952V379H1723.19V345.64H1733.75C1737.53 345.64 1740.49 346.488 1742.63 348.184C1744.78 349.848 1745.85 352.328 1745.85 355.624C1745.85 357.512 1745.53 359.176 1744.89 360.616C1744.28 362.024 1743.42 363.208 1742.3 364.168C1741.21 365.096 1739.9 365.8 1738.36 366.28C1736.86 366.728 1735.19 366.952 1733.37 366.952H1727.61ZM1759.92 357.304C1758.2 357.304 1756.71 357.912 1755.46 359.128C1754.24 360.344 1753.48 362.184 1753.16 364.648H1765.4C1765.59 362.152 1765.16 360.312 1764.1 359.128C1763.08 357.912 1761.68 357.304 1759.92 357.304ZM1768.8 376.936C1767.94 377.672 1766.82 378.28 1765.44 378.76C1764.07 379.24 1762.5 379.48 1760.74 379.48C1756.9 379.48 1753.96 378.392 1751.91 376.216C1749.86 374.008 1748.84 370.904 1748.84 366.904C1748.84 364.952 1749.12 363.208 1749.7 361.672C1750.28 360.104 1751.06 358.776 1752.05 357.688C1753.08 356.6 1754.26 355.784 1755.6 355.24C1756.98 354.664 1758.45 354.376 1760.02 354.376C1761.65 354.376 1763.11 354.664 1764.39 355.24C1765.7 355.784 1766.77 356.616 1767.6 357.736C1768.47 358.824 1769.04 360.2 1769.33 361.864C1769.65 363.496 1769.65 365.384 1769.33 367.528H1753.01C1753.2 373.32 1755.91 376.216 1761.12 376.216C1762.5 376.216 1763.73 376.008 1764.82 375.592C1765.91 375.176 1766.92 374.648 1767.84 374.008L1768.8 376.936ZM1790.72 367.96H1779.01V379H1774.93V354.856H1779.01V365.08H1790.72V354.856H1794.8V379H1790.72V367.96ZM1805.64 374.344C1805.38 374.92 1805.04 375.464 1804.63 375.976H1816.92V357.736H1807.94C1807.78 361.896 1807.54 365.32 1807.22 368.008C1806.9 370.664 1806.37 372.776 1805.64 374.344ZM1820.66 379H1802.47L1801.6 386.632H1798.48V375.976H1800.21C1801.36 375.272 1802.23 373.992 1802.8 372.136C1803.38 370.312 1803.76 367.976 1803.96 365.128C1804.15 362.248 1804.29 358.824 1804.39 354.856H1821V375.976H1824.64V386.632H1821.52L1820.66 379ZM1838.67 357.304C1836.95 357.304 1835.46 357.912 1834.21 359.128C1832.99 360.344 1832.23 362.184 1831.91 364.648H1844.15C1844.34 362.152 1843.91 360.312 1842.85 359.128C1841.83 357.912 1840.43 357.304 1838.67 357.304ZM1847.55 376.936C1846.69 377.672 1845.57 378.28 1844.19 378.76C1842.82 379.24 1841.25 379.48 1839.49 379.48C1835.65 379.48 1832.71 378.392 1830.66 376.216C1828.61 374.008 1827.59 370.904 1827.59 366.904C1827.59 364.952 1827.87 363.208 1828.45 361.672C1829.03 360.104 1829.81 358.776 1830.8 357.688C1831.83 356.6 1833.01 355.784 1834.35 355.24C1835.73 354.664 1837.2 354.376 1838.77 354.376C1840.4 354.376 1841.86 354.664 1843.14 355.24C1844.45 355.784 1845.52 356.616 1846.35 357.736C1847.22 358.824 1847.79 360.2 1848.08 361.864C1848.4 363.496 1848.4 365.384 1848.08 367.528H1831.76C1831.95 373.32 1834.66 376.216 1839.87 376.216C1841.25 376.216 1842.48 376.008 1843.57 375.592C1844.66 375.176 1845.67 374.648 1846.59 374.008L1847.55 376.936ZM1865.2 376.552C1867.35 376.552 1869.07 375.8 1870.39 374.296C1871.73 372.76 1872.4 370.296 1872.4 366.904C1872.4 363.576 1871.73 361.144 1870.39 359.608C1869.07 358.04 1867.35 357.256 1865.2 357.256C1864.15 357.256 1863.14 357.448 1862.18 357.832C1861.22 358.184 1860.37 358.76 1859.63 359.56C1858.93 360.328 1858.37 361.32 1857.95 362.536C1857.54 363.752 1857.33 365.208 1857.33 366.904C1857.33 368.632 1857.54 370.104 1857.95 371.32C1858.37 372.536 1858.93 373.528 1859.63 374.296C1860.37 375.064 1861.22 375.64 1862.18 376.024C1863.14 376.376 1864.15 376.552 1865.2 376.552ZM1865.83 379.48C1864.03 379.48 1862.45 379.096 1861.07 378.328C1859.73 377.528 1858.63 376.44 1857.76 375.064V387.976H1853.68V354.856H1857.28L1857.57 359.128C1858.43 357.688 1859.55 356.536 1860.93 355.672C1862.34 354.808 1864.03 354.376 1866.02 354.376C1867.43 354.376 1868.77 354.632 1870.05 355.144C1871.33 355.656 1872.45 356.424 1873.41 357.448C1874.4 358.472 1875.19 359.784 1875.76 361.384C1876.34 362.952 1876.63 364.792 1876.63 366.904C1876.63 369.016 1876.32 370.872 1875.71 372.472C1875.14 374.04 1874.35 375.352 1873.36 376.408C1872.37 377.432 1871.22 378.2 1869.91 378.712C1868.63 379.224 1867.27 379.48 1865.83 379.48ZM1881.99 354.856H1886.07V373.528L1899.37 354.856H1903.11V379H1899.03V360.28L1885.79 379H1881.99V354.856ZM1925.72 367.96H1914.01V379H1909.93V354.856H1914.01V365.08H1925.72V354.856H1929.8V379H1925.72V367.96ZM1940.68 357.736V379H1936.6V354.856H1951V357.736H1940.68Z" fill="black"/>
<path d="M509 118H1070V191H509V118Z" fill="#F8CC46"/>
<path d="M571.424 171.48C569.056 171.48 566.992 171.16 565.232 170.52C563.472 169.88 562.208 169.192 561.44 168.456L562.88 165.48C564.224 166.408 565.52 167.096 566.768 167.544C568.016 167.96 569.472 168.168 571.136 168.168C572.192 168.168 573.184 168.04 574.112 167.784C575.04 167.496 575.84 167.064 576.512 166.488C577.216 165.88 577.76 165.128 578.144 164.232C578.56 163.304 578.768 162.216 578.768 160.968C578.768 158.792 578.128 157.24 576.848 156.312C575.568 155.352 573.696 154.872 571.232 154.872H566.912V151.608H571.28C573.488 151.608 575.12 151.144 576.176 150.216C577.232 149.256 577.76 147.864 577.76 146.04C577.76 144.12 577.2 142.744 576.08 141.912C574.96 141.08 573.44 140.664 571.52 140.664C569.888 140.664 568.464 140.872 567.248 141.288C566.032 141.672 564.864 142.28 563.744 143.112L562.112 139.512C563.264 138.872 564.592 138.328 566.096 137.88C567.6 137.432 569.408 137.208 571.52 137.208C574.88 137.208 577.504 137.928 579.392 139.368C581.28 140.808 582.224 142.92 582.224 145.704C582.224 149.576 580.288 152.008 576.416 153C581.056 153.864 583.376 156.536 583.376 161.016C583.376 162.776 583.056 164.312 582.416 165.624C581.808 166.936 580.96 168.024 579.872 168.888C578.784 169.752 577.504 170.408 576.032 170.856C574.592 171.272 573.056 171.48 571.424 171.48ZM596.06 168.504C597.756 168.504 599.1 168.088 600.092 167.256C601.116 166.392 601.868 165.416 602.348 164.328V159.768H600.236C597.132 159.768 594.892 160.104 593.516 160.776C592.172 161.416 591.5 162.664 591.5 164.52C591.5 165.832 591.948 166.824 592.844 167.496C593.772 168.168 594.844 168.504 596.06 168.504ZM603.116 171C602.988 170.552 602.876 170.024 602.78 169.416C602.684 168.808 602.604 168.152 602.54 167.448C602.252 167.928 601.9 168.408 601.484 168.888C601.1 169.368 600.62 169.8 600.044 170.184C599.468 170.568 598.78 170.872 597.98 171.096C597.18 171.352 596.252 171.48 595.196 171.48C594.14 171.48 593.148 171.336 592.22 171.048C591.292 170.76 590.46 170.328 589.724 169.752C589.02 169.176 588.46 168.472 588.044 167.64C587.628 166.808 587.42 165.848 587.42 164.76C587.42 162.136 588.46 160.232 590.54 159.048C592.652 157.832 595.756 157.224 599.852 157.224H602.348V155.256C602.348 153.304 601.932 151.848 601.1 150.888C600.268 149.928 598.796 149.448 596.684 149.448C595.244 149.448 593.932 149.72 592.748 150.264C591.596 150.776 590.572 151.4 589.676 152.136L588.572 148.776C588.956 148.488 589.452 148.2 590.06 147.912C590.668 147.624 591.356 147.368 592.124 147.144C592.892 146.92 593.708 146.744 594.572 146.616C595.436 146.456 596.316 146.376 597.212 146.376C600.252 146.376 602.54 147.048 604.076 148.392C605.644 149.704 606.428 151.8 606.428 154.68V167.112C606.428 167.656 606.46 168.344 606.524 169.176C606.588 169.976 606.668 170.584 606.764 171H603.116ZM617.082 149.736V171H613.002V146.856H627.402V149.736H617.082ZM644.022 168.552C646.166 168.552 647.894 167.8 649.206 166.296C650.55 164.76 651.222 162.296 651.222 158.904C651.222 155.576 650.55 153.144 649.206 151.608C647.894 150.04 646.166 149.256 644.022 149.256C642.966 149.256 641.958 149.448 640.998 149.832C640.038 150.184 639.19 150.76 638.454 151.56C637.75 152.328 637.19 153.32 636.774 154.536C636.358 155.752 636.15 157.208 636.15 158.904C636.15 160.632 636.358 162.104 636.774 163.32C637.19 164.536 637.75 165.528 638.454 166.296C639.19 167.064 640.038 167.64 640.998 168.024C641.958 168.376 642.966 168.552 644.022 168.552ZM644.646 171.48C642.854 171.48 641.27 171.096 639.894 170.328C638.55 169.528 637.446 168.44 636.582 167.064V179.976H632.502V146.856H636.102L636.39 151.128C637.254 149.688 638.374 148.536 639.75 147.672C641.158 146.808 642.854 146.376 644.838 146.376C646.246 146.376 647.59 146.632 648.87 147.144C650.15 147.656 651.27 148.424 652.23 149.448C653.222 150.472 654.006 151.784 654.582 153.384C655.158 154.952 655.446 156.792 655.446 158.904C655.446 161.016 655.142 162.872 654.534 164.472C653.958 166.04 653.174 167.352 652.182 168.408C651.19 169.432 650.038 170.2 648.726 170.712C647.446 171.224 646.086 171.48 644.646 171.48ZM662.74 180.408C662.004 180.408 661.332 180.344 660.724 180.216C660.148 180.12 659.636 179.992 659.188 179.832L659.716 176.52C660.1 176.68 660.532 176.824 661.012 176.952C661.492 177.08 662.004 177.144 662.548 177.144C663.444 177.144 664.26 176.856 664.996 176.28C665.732 175.704 666.532 174.68 667.396 173.208L657.844 146.856H662.26L669.604 167.928L676.948 146.856H680.644L672.1 170.712C671.524 172.28 670.932 173.656 670.324 174.84C669.716 176.056 669.044 177.064 668.308 177.864C667.572 178.696 666.74 179.32 665.812 179.736C664.916 180.184 663.892 180.408 662.74 180.408ZM690.769 171.48C689.137 171.48 687.633 171.272 686.257 170.856C684.881 170.44 683.825 169.944 683.089 169.368L684.193 166.584C685.025 167.16 686.033 167.624 687.217 167.976C688.401 168.296 689.633 168.456 690.913 168.456C692.481 168.456 693.793 168.12 694.849 167.448C695.905 166.744 696.433 165.576 696.433 163.944C696.433 161.32 694.545 160.008 690.769 160.008H687.553V156.84H690.913C692.481 156.84 693.649 156.52 694.417 155.88C695.217 155.208 695.617 154.296 695.617 153.144C695.617 152.44 695.489 151.848 695.233 151.368C694.977 150.856 694.625 150.456 694.177 150.168C693.729 149.848 693.201 149.624 692.593 149.496C692.017 149.336 691.377 149.256 690.673 149.256C689.489 149.256 688.417 149.464 687.457 149.88C686.529 150.296 685.617 150.84 684.721 151.512L683.665 148.44C684.433 147.832 685.441 147.336 686.689 146.952C687.937 146.568 689.377 146.376 691.009 146.376C693.665 146.376 695.713 146.92 697.153 148.008C698.625 149.064 699.361 150.616 699.361 152.664C699.361 154.232 698.913 155.48 698.017 156.408C697.121 157.304 696.001 157.88 694.657 158.136C698.497 158.776 700.417 160.792 700.417 164.184C700.417 165.496 700.145 166.616 699.601 167.544C699.089 168.44 698.385 169.192 697.489 169.8C696.625 170.376 695.601 170.792 694.417 171.048C693.265 171.336 692.049 171.48 690.769 171.48ZM720.692 171L710.612 158.136L720.548 146.856H724.82L714.98 157.656L725.492 171H720.692ZM709.988 146.856V171H705.908V146.856H709.988ZM736.451 168.504C738.147 168.504 739.491 168.088 740.483 167.256C741.507 166.392 742.259 165.416 742.739 164.328V159.768H740.627C737.523 159.768 735.283 160.104 733.907 160.776C732.563 161.416 731.891 162.664 731.891 164.52C731.891 165.832 732.339 166.824 733.235 167.496C734.163 168.168 735.235 168.504 736.451 168.504ZM743.507 171C743.379 170.552 743.267 170.024 743.171 169.416C743.075 168.808 742.995 168.152 742.931 167.448C742.643 167.928 742.291 168.408 741.875 168.888C741.491 169.368 741.011 169.8 740.435 170.184C739.859 170.568 739.171 170.872 738.371 171.096C737.571 171.352 736.643 171.48 735.587 171.48C734.531 171.48 733.539 171.336 732.611 171.048C731.683 170.76 730.851 170.328 730.115 169.752C729.411 169.176 728.851 168.472 728.435 167.64C728.019 166.808 727.811 165.848 727.811 164.76C727.811 162.136 728.851 160.232 730.931 159.048C733.043 157.832 736.147 157.224 740.243 157.224H742.739V155.256C742.739 153.304 742.323 151.848 741.491 150.888C740.659 149.928 739.187 149.448 737.075 149.448C735.635 149.448 734.323 149.72 733.139 150.264C731.987 150.776 730.963 151.4 730.067 152.136L728.963 148.776C729.347 148.488 729.843 148.2 730.451 147.912C731.059 147.624 731.747 147.368 732.515 147.144C733.283 146.92 734.099 146.744 734.963 146.616C735.827 146.456 736.707 146.376 737.603 146.376C740.643 146.376 742.931 147.048 744.467 148.392C746.035 149.704 746.819 151.8 746.819 154.68V167.112C746.819 167.656 746.851 168.344 746.915 169.176C746.979 169.976 747.059 170.584 747.155 171H743.507ZM778.536 171L768.456 158.136L778.392 146.856H782.664L772.824 157.656L783.336 171H778.536ZM767.832 146.856V171H763.752V146.856H767.832ZM796.85 171.48C795.282 171.48 793.794 171.208 792.386 170.664C790.978 170.088 789.746 169.272 788.69 168.216C787.634 167.128 786.786 165.816 786.146 164.28C785.538 162.712 785.234 160.92 785.234 158.904C785.234 156.888 785.538 155.112 786.146 153.576C786.786 152.008 787.634 150.696 788.69 149.64C789.746 148.584 790.978 147.784 792.386 147.24C793.794 146.664 795.282 146.376 796.85 146.376C798.418 146.376 799.906 146.664 801.314 147.24C802.754 147.784 804.002 148.584 805.058 149.64C806.146 150.696 807.01 152.008 807.65 153.576C808.29 155.112 808.61 156.888 808.61 158.904C808.61 160.92 808.29 162.712 807.65 164.28C807.01 165.816 806.146 167.128 805.058 168.216C804.002 169.272 802.754 170.088 801.314 170.664C799.906 171.208 798.418 171.48 796.85 171.48ZM796.85 168.456C797.81 168.456 798.738 168.296 799.634 167.976C800.562 167.624 801.378 167.064 802.082 166.296C802.786 165.528 803.346 164.536 803.762 163.32C804.21 162.104 804.434 160.632 804.434 158.904C804.434 157.176 804.21 155.72 803.762 154.536C803.346 153.32 802.786 152.328 802.082 151.56C801.378 150.792 800.562 150.248 799.634 149.928C798.738 149.576 797.81 149.4 796.85 149.4C795.89 149.4 794.962 149.576 794.066 149.928C793.202 150.248 792.418 150.792 791.714 151.56C791.01 152.328 790.45 153.32 790.034 154.536C789.618 155.72 789.41 157.176 789.41 158.904C789.41 160.632 789.618 162.104 790.034 163.32C790.45 164.536 791.01 165.528 791.714 166.296C792.418 167.064 793.202 167.624 794.066 167.976C794.962 168.296 795.89 168.456 796.85 168.456ZM818.226 152.28L816.978 171H813.57L815.202 146.856H820.098L826.29 163.512L832.962 146.856H837.666L839.298 171H835.314L834.066 152.28L827.442 168.312H824.418L818.226 152.28ZM860.953 149.736H849.769V171H845.689V146.856H865.033V171H860.953V149.736ZM882.022 171.48C880.454 171.48 878.966 171.208 877.558 170.664C876.15 170.088 874.918 169.272 873.862 168.216C872.806 167.128 871.958 165.816 871.318 164.28C870.71 162.712 870.406 160.92 870.406 158.904C870.406 156.888 870.71 155.112 871.318 153.576C871.958 152.008 872.806 150.696 873.862 149.64C874.918 148.584 876.15 147.784 877.558 147.24C878.966 146.664 880.454 146.376 882.022 146.376C883.59 146.376 885.078 146.664 886.486 147.24C887.926 147.784 889.174 148.584 890.23 149.64C891.318 150.696 892.182 152.008 892.822 153.576C893.462 155.112 893.781 156.888 893.781 158.904C893.781 160.92 893.462 162.712 892.822 164.28C892.182 165.816 891.318 167.128 890.23 168.216C889.174 169.272 887.926 170.088 886.486 170.664C885.078 171.208 883.59 171.48 882.022 171.48ZM882.022 168.456C882.982 168.456 883.91 168.296 884.806 167.976C885.734 167.624 886.55 167.064 887.254 166.296C887.958 165.528 888.518 164.536 888.934 163.32C889.382 162.104 889.606 160.632 889.606 158.904C889.606 157.176 889.382 155.72 888.934 154.536C888.518 153.32 887.958 152.328 887.254 151.56C886.55 150.792 885.734 150.248 884.806 149.928C883.91 149.576 882.982 149.4 882.022 149.4C881.062 149.4 880.134 149.576 879.238 149.928C878.374 150.248 877.59 150.792 876.886 151.56C876.182 152.328 875.622 153.32 875.206 154.536C874.79 155.72 874.582 157.176 874.582 158.904C874.582 160.632 874.79 162.104 875.206 163.32C875.622 164.536 876.182 165.528 876.886 166.296C877.59 167.064 878.374 167.624 879.238 167.976C880.134 168.296 881.062 168.456 882.022 168.456ZM914.966 159.96H903.254V171H899.174V146.856H903.254V157.08H914.966V146.856H919.046V171H914.966V159.96ZM935.494 149.304C933.766 149.304 932.278 149.912 931.03 151.128C929.814 152.344 929.046 154.184 928.726 156.648H940.966C941.158 154.152 940.726 152.312 939.67 151.128C938.646 149.912 937.254 149.304 935.494 149.304ZM944.374 168.936C943.51 169.672 942.39 170.28 941.014 170.76C939.638 171.24 938.07 171.48 936.31 171.48C932.47 171.48 929.526 170.392 927.478 168.216C925.43 166.008 924.406 162.904 924.406 158.904C924.406 156.952 924.694 155.208 925.27 153.672C925.846 152.104 926.63 150.776 927.622 149.688C928.646 148.6 929.83 147.784 931.174 147.24C932.55 146.664 934.022 146.376 935.59 146.376C937.222 146.376 938.678 146.664 939.958 147.24C941.27 147.784 942.342 148.616 943.174 149.736C944.038 150.824 944.614 152.2 944.902 153.864C945.222 155.496 945.222 157.384 944.902 159.528H928.582C928.774 165.32 931.478 168.216 936.694 168.216C938.07 168.216 939.302 168.008 940.39 167.592C941.478 167.176 942.486 166.648 943.414 166.008L944.374 168.936ZM966.294 159.96H954.582V171H950.502V146.856H954.582V157.08H966.294V146.856H970.374V171H966.294V159.96ZM986.678 149.736V171H982.55V149.736H975.206V146.856H994.166V149.736H986.678ZM1005.47 168.504C1007.16 168.504 1008.51 168.088 1009.5 167.256C1010.52 166.392 1011.27 165.416 1011.75 164.328V159.768H1009.64C1006.54 159.768 1004.3 160.104 1002.92 160.776C1001.58 161.416 1000.91 162.664 1000.91 164.52C1000.91 165.832 1001.35 166.824 1002.25 167.496C1003.18 168.168 1004.25 168.504 1005.47 168.504ZM1012.52 171C1012.39 170.552 1012.28 170.024 1012.19 169.416C1012.09 168.808 1012.01 168.152 1011.95 167.448C1011.66 167.928 1011.31 168.408 1010.89 168.888C1010.51 169.368 1010.03 169.8 1009.45 170.184C1008.87 170.568 1008.19 170.872 1007.39 171.096C1006.59 171.352 1005.66 171.48 1004.6 171.48C1003.55 171.48 1002.55 171.336 1001.63 171.048C1000.7 170.76 999.866 170.328 999.13 169.752C998.426 169.176 997.866 168.472 997.45 167.64C997.034 166.808 996.826 165.848 996.826 164.76C996.826 162.136 997.866 160.232 999.946 159.048C1002.06 157.832 1005.16 157.224 1009.26 157.224H1011.75V155.256C1011.75 153.304 1011.34 151.848 1010.51 150.888C1009.67 149.928 1008.2 149.448 1006.09 149.448C1004.65 149.448 1003.34 149.72 1002.15 150.264C1001 150.776 999.978 151.4 999.082 152.136L997.978 148.776C998.362 148.488 998.858 148.2 999.466 147.912C1000.07 147.624 1000.76 147.368 1001.53 147.144C1002.3 146.92 1003.11 146.744 1003.98 146.616C1004.84 146.456 1005.72 146.376 1006.62 146.376C1009.66 146.376 1011.95 147.048 1013.48 148.392C1015.05 149.704 1015.83 151.8 1015.83 154.68V167.112C1015.83 167.656 1015.87 168.344 1015.93 169.176C1015.99 169.976 1016.07 170.584 1016.17 171H1012.52Z" fill="black"/>
<line x1="506.5" y1="2" x2="506.5" y2="414" stroke="#EB483F" stroke-width="5" stroke-dasharray="2 5"/>
<line x1="2090.5" y1="2" x2="2090.5" y2="414" stroke="#EB483F" stroke-width="5" stroke-dasharray="2 5"/>
<line x1="2.5" y1="2" x2="2.5" y2="414" stroke="#EB483F" stroke-width="5" stroke-dasharray="2 5"/>
<line x1="1072.5" y1="2" x2="1072.5" y2="414" stroke="#EB483F" stroke-width="5" stroke-dasharray="2 5"/>
<line x1="1581.5" y1="2" x2="1581.5" y2="414" stroke="#EB483F" stroke-width="5" stroke-dasharray="2 5"/>
<line y1="102" x2="2088" y2="102" stroke="#AAAAAA" stroke-width="2"/>
<line y1="310" x2="2088" y2="310" stroke="#AAAAAA" stroke-width="2"/>
<line y1="207" x2="2088" y2="207" stroke="#AAAAAA" stroke-width="2"/>
<line y1="413" x2="2088" y2="413" stroke="#AAAAAA" stroke-width="2"/>
<line y1="1" x2="2088" y2="1" stroke="#AAAAAA" stroke-width="2"/>
</svg>
