<svg width="1416" height="659" viewBox="0 0 1416 659" fill="none" xmlns="http://www.w3.org/2000/svg">
<rect x="93" y="293" width="262" height="73" fill="#F8CC46"/>
<rect x="355" y="107" width="262" height="73" fill="#F8CC46"/>
<rect x="355" y="479" width="262" height="73" fill="#F8CC46"/>
<path d="M432.88 201.683C433.257 200.645 432.722 199.498 431.683 199.12L414.767 192.969C413.729 192.592 412.582 193.127 412.204 194.165C411.827 195.203 412.362 196.351 413.4 196.728L428.437 202.196L422.969 217.233C422.592 218.271 423.127 219.418 424.165 219.796C425.203 220.173 426.351 219.638 426.728 218.6L432.88 201.683ZM296.846 265.812L431.846 202.812L430.154 199.188L295.154 262.188L296.846 265.812Z" fill="#999999"/>
<path d="M430.068 458.154C431.115 457.802 431.679 456.668 431.326 455.621L425.588 438.56C425.235 437.513 424.101 436.95 423.054 437.302C422.007 437.655 421.444 438.789 421.796 439.836L426.898 455.001L411.733 460.102C410.686 460.454 410.122 461.588 410.475 462.635C410.827 463.682 411.961 464.245 413.008 463.893L430.068 458.154ZM295.11 391.791L428.541 458.05L430.32 454.467L296.89 388.209L295.11 391.791Z" fill="#999999"/>
<path d="M404.536 281.44C403.704 281.44 403.016 281.184 402.472 280.672C401.96 280.128 401.704 279.472 401.704 278.704C401.704 277.968 401.96 277.328 402.472 276.784C403.016 276.208 403.704 275.92 404.536 275.92C405.368 275.92 406.024 276.208 406.504 276.784C406.984 277.328 407.224 277.968 407.224 278.704C407.224 279.472 406.984 280.128 406.504 280.672C406.024 281.184 405.368 281.44 404.536 281.44ZM406.6 285.088V310H402.376V285.088H406.6ZM418.178 310H413.954V285.088H417.698L418.082 289.552H418.178C418.85 288.176 419.858 287.008 421.202 286.048C422.546 285.088 424.306 284.608 426.482 284.608C428.37 284.608 429.938 285.056 431.186 285.952C432.466 286.848 433.298 288.224 433.682 290.08C434.386 288.384 435.458 287.056 436.898 286.096C438.37 285.104 440.146 284.608 442.226 284.608C444.53 284.608 446.354 285.264 447.698 286.576C449.042 287.856 449.714 289.84 449.714 292.528V310H445.442V293.056C445.442 291.424 445.042 290.24 444.242 289.504C443.442 288.736 442.354 288.352 440.978 288.352C440.05 288.352 439.234 288.496 438.53 288.784C437.826 289.04 437.202 289.408 436.658 289.888C436.114 290.368 435.618 290.928 435.17 291.568C434.722 292.208 434.306 292.88 433.922 293.584V310H429.698V292.576C429.698 290.976 429.298 289.872 428.498 289.264C427.698 288.656 426.61 288.352 425.234 288.352C424.338 288.352 423.538 288.464 422.834 288.688C422.13 288.912 421.49 289.232 420.914 289.648C420.37 290.064 419.874 290.576 419.426 291.184C418.978 291.76 418.562 292.4 418.178 293.104V310ZM468.702 306.688C470.91 306.688 472.686 305.936 474.03 304.432C475.406 302.896 476.094 300.592 476.094 297.52C476.094 294.512 475.406 292.24 474.03 290.704C472.686 289.136 470.91 288.352 468.702 288.352C467.614 288.352 466.59 288.544 465.63 288.928C464.702 289.312 463.886 289.888 463.182 290.656C462.51 291.392 461.966 292.336 461.55 293.488C461.166 294.64 460.974 295.984 460.974 297.52C460.974 299.056 461.166 300.4 461.55 301.552C461.966 302.704 462.51 303.664 463.182 304.432C463.886 305.2 464.702 305.776 465.63 306.16C466.59 306.512 467.614 306.688 468.702 306.688ZM469.326 310.48C467.406 310.48 465.742 310.032 464.334 309.136C462.958 308.24 461.854 307.008 461.022 305.44V318.496H456.798V285.088H460.542L460.926 289.984C461.758 288.352 462.878 287.056 464.286 286.096C465.694 285.104 467.438 284.608 469.518 284.608C470.958 284.608 472.334 284.88 473.646 285.424C474.99 285.936 476.158 286.736 477.15 287.824C478.174 288.88 478.974 290.224 479.55 291.856C480.158 293.456 480.462 295.344 480.462 297.52C480.462 299.728 480.158 301.648 479.55 303.28C478.942 304.88 478.126 306.224 477.102 307.312C476.078 308.368 474.894 309.168 473.55 309.712C472.206 310.224 470.798 310.48 469.326 310.48ZM496.412 310.48C494.716 310.48 493.132 310.192 491.66 309.616C490.188 309.04 488.908 308.208 487.82 307.12C486.764 306 485.932 304.64 485.324 303.04C484.716 301.44 484.412 299.6 484.412 297.52C484.412 295.472 484.716 293.648 485.324 292.048C485.932 290.416 486.764 289.056 487.82 287.968C488.908 286.88 490.188 286.048 491.66 285.472C493.132 284.896 494.716 284.608 496.412 284.608C498.14 284.608 499.74 284.896 501.212 285.472C502.684 286.048 503.948 286.88 505.004 287.968C506.092 289.056 506.94 290.416 507.548 292.048C508.188 293.648 508.508 295.472 508.508 297.52C508.508 299.6 508.188 301.44 507.548 303.04C506.94 304.64 506.092 306 505.004 307.12C503.948 308.208 502.684 309.04 501.212 309.616C499.74 310.192 498.14 310.48 496.412 310.48ZM496.412 306.688C497.532 306.688 498.572 306.512 499.532 306.16C500.492 305.776 501.308 305.216 501.98 304.48C502.684 303.712 503.228 302.752 503.612 301.6C504.028 300.448 504.236 299.088 504.236 297.52C504.236 295.952 504.028 294.592 503.612 293.44C503.228 292.288 502.684 291.344 501.98 290.608C501.308 289.84 500.492 289.28 499.532 288.928C498.572 288.544 497.532 288.352 496.412 288.352C495.292 288.352 494.268 288.544 493.34 288.928C492.412 289.28 491.596 289.84 490.892 290.608C490.22 291.344 489.692 292.288 489.308 293.44C488.924 294.592 488.732 295.952 488.732 297.52C488.732 299.088 488.924 300.448 489.308 301.6C489.692 302.752 490.22 303.712 490.892 304.48C491.596 305.216 492.412 305.776 493.34 306.16C494.268 306.512 495.292 306.688 496.412 306.688ZM526.462 289.312C524.67 289.472 523.038 289.936 521.566 290.704C520.126 291.44 519.054 292.592 518.35 294.16V310H514.126V285.088H517.87L518.254 290.512H518.35C519.054 289.04 520.062 287.76 521.374 286.672C522.718 285.552 524.414 284.864 526.462 284.608V289.312ZM544.895 309.328C544.383 309.648 543.647 309.92 542.687 310.144C541.727 310.368 540.783 310.48 539.855 310.48C538.639 310.48 537.599 310.304 536.735 309.952C535.871 309.6 535.167 309.136 534.623 308.56C534.079 307.952 533.679 307.28 533.423 306.544C533.167 305.776 533.039 304.992 533.039 304.192V288.688H530.063V285.088H533.039V279.856H537.311V285.088H544.511V288.688H537.311V303.664C537.311 304.72 537.567 305.488 538.079 305.968C538.623 306.448 539.407 306.688 540.431 306.688C541.071 306.688 541.711 306.608 542.351 306.448C543.023 306.256 543.631 306 544.175 305.68L544.895 309.328ZM555.688 316.672C553.256 313.824 551.512 310.656 550.456 307.168C549.4 303.648 548.872 299.68 548.872 295.264C548.872 290.848 549.4 286.8 550.456 283.12C551.512 279.44 553.256 276.304 555.688 273.712H559.912C557.32 276.272 555.512 279.376 554.488 283.024C553.464 286.672 552.952 290.704 552.952 295.12C552.952 299.536 553.464 303.504 554.488 307.024C555.512 310.544 557.32 313.76 559.912 316.672H555.688ZM565.292 316.672C567.724 313.824 569.468 310.656 570.524 307.168C571.58 303.648 572.108 299.68 572.108 295.264C572.108 290.848 571.58 286.8 570.524 283.12C569.468 279.44 567.724 276.304 565.292 273.712H561.068C563.66 276.272 565.468 279.376 566.492 283.024C567.516 286.672 568.028 290.704 568.028 295.12C568.028 299.536 567.516 303.504 566.492 307.024C565.468 310.544 563.66 313.76 561.068 316.672H565.292Z" fill="black"/>
<rect x="0.5" y="0.5" width="671" height="658" stroke="#999999"/>
<path d="M23.3966 57H19.1726V32.088H22.9166L23.3006 36.552H23.3966C24.0686 35.176 25.0766 34.008 26.4206 33.048C27.7646 32.088 29.5246 31.608 31.7006 31.608C33.5886 31.608 35.1566 32.056 36.4046 32.952C37.6846 33.848 38.5166 35.224 38.9006 37.08C39.6046 35.384 40.6766 34.056 42.1166 33.096C43.5886 32.104 45.3646 31.608 47.4446 31.608C49.7486 31.608 51.5726 32.264 52.9166 33.576C54.2606 34.856 54.9326 36.84 54.9326 39.528V57H50.6606V40.056C50.6606 38.424 50.2606 37.24 49.4606 36.504C48.6606 35.736 47.5726 35.352 46.1966 35.352C45.2686 35.352 44.4526 35.496 43.7486 35.784C43.0446 36.04 42.4206 36.408 41.8766 36.888C41.3326 37.368 40.8366 37.928 40.3886 38.568C39.9406 39.208 39.5246 39.88 39.1406 40.584V57H34.9166V39.576C34.9166 37.976 34.5166 36.872 33.7166 36.264C32.9166 35.656 31.8286 35.352 30.4526 35.352C29.5566 35.352 28.7566 35.464 28.0526 35.688C27.3486 35.912 26.7086 36.232 26.1326 36.648C25.5886 37.064 25.0926 37.576 24.6446 38.184C24.1966 38.76 23.7806 39.4 23.3966 40.104V57ZM68.8323 53.688C69.7283 53.688 70.5443 53.56 71.2803 53.304C72.0483 53.048 72.7203 52.712 73.2963 52.296C73.9043 51.88 74.4323 51.432 74.8803 50.952C75.3603 50.472 75.7603 49.992 76.0803 49.512V45.384H72.8163C69.8083 45.384 67.6963 45.784 66.4803 46.584C65.2643 47.352 64.6563 48.456 64.6563 49.896C64.6563 51.016 64.9923 51.928 65.6643 52.632C66.3363 53.336 67.3923 53.688 68.8323 53.688ZM76.3203 52.872C75.9683 53.416 75.5363 53.976 75.0243 54.552C74.5443 55.096 73.9523 55.592 73.2483 56.04C72.5763 56.456 71.7923 56.792 70.8963 57.048C70.0003 57.336 69.0083 57.48 67.9203 57.48C65.6803 57.48 63.8723 56.856 62.4963 55.608C61.1203 54.328 60.4323 52.504 60.4323 50.136C60.4323 44.728 64.4323 42.024 72.4323 42.024H76.0803V40.152C76.0803 38.424 75.6163 37.192 74.6883 36.456C73.7923 35.72 72.2883 35.352 70.1763 35.352C68.5443 35.352 67.0883 35.56 65.8083 35.976C64.5603 36.392 63.4723 36.872 62.5443 37.416L61.5363 33.912C62.4003 33.368 63.6003 32.856 65.1363 32.376C66.6723 31.864 68.4483 31.608 70.4643 31.608C73.6643 31.608 76.0963 32.264 77.7603 33.576C79.4563 34.888 80.3043 36.904 80.3043 39.624V52.968C80.3043 53.256 80.3043 53.592 80.3043 53.976C80.3363 54.328 80.3523 54.696 80.3523 55.08C80.3843 55.464 80.4163 55.832 80.4483 56.184C80.4803 56.504 80.5123 56.776 80.5443 57H76.6563C76.5923 56.552 76.5123 55.928 76.4163 55.128C76.3523 54.296 76.3203 53.576 76.3203 52.968V52.872ZM89.5826 28.44C88.7506 28.44 88.0626 28.184 87.5186 27.672C87.0066 27.128 86.7506 26.472 86.7506 25.704C86.7506 24.968 87.0066 24.328 87.5186 23.784C88.0626 23.208 88.7506 22.92 89.5826 22.92C90.4146 22.92 91.0706 23.208 91.5506 23.784C92.0306 24.328 92.2706 24.968 92.2706 25.704C92.2706 26.472 92.0306 27.128 91.5506 27.672C91.0706 28.184 90.4146 28.44 89.5826 28.44ZM91.6466 32.088V57H87.4226V32.088H91.6466ZM110.809 35.352C108.889 35.352 107.321 35.8 106.105 36.696C104.921 37.56 103.961 38.68 103.225 40.056V57H99.0007V32.088H102.985L103.129 36.552H103.225C103.897 35.112 104.953 33.928 106.393 33C107.833 32.072 109.657 31.608 111.865 31.608C114.329 31.608 116.281 32.264 117.721 33.576C119.193 34.856 119.929 36.84 119.929 39.528V57H115.705V39.96C115.705 38.232 115.273 37.032 114.409 36.36C113.545 35.688 112.345 35.352 110.809 35.352ZM129.622 57.288C128.726 57.288 127.974 57 127.366 56.424C126.79 55.816 126.502 55.096 126.502 54.264C126.502 53.368 126.79 52.632 127.366 52.056C127.974 51.48 128.726 51.192 129.622 51.192C130.518 51.192 131.254 51.48 131.83 52.056C132.406 52.632 132.694 53.368 132.694 54.264C132.694 55.096 132.406 55.816 131.83 56.424C131.254 57 130.518 57.288 129.622 57.288ZM142.094 28.44C141.262 28.44 140.59 28.184 140.078 27.672C139.566 27.128 139.31 26.472 139.31 25.704C139.31 24.968 139.566 24.328 140.078 23.784C140.59 23.208 141.262 22.92 142.094 22.92C142.926 22.92 143.598 23.208 144.11 23.784C144.622 24.328 144.878 24.968 144.878 25.704C144.878 26.472 144.622 27.128 144.11 27.672C143.598 28.184 142.926 28.44 142.094 28.44ZM134.99 62.136C135.982 62.04 136.798 61.832 137.438 61.512C138.11 61.224 138.638 60.84 139.022 60.36C139.406 59.912 139.662 59.4 139.79 58.824C139.95 58.248 140.03 57.624 140.03 56.952V32.088H144.206V56.664C144.206 59.256 143.534 61.368 142.19 63C140.878 64.632 138.702 65.608 135.662 65.928L134.99 62.136ZM159.562 57.48C157.29 57.48 155.402 57.272 153.898 56.856C152.394 56.408 151.146 55.864 150.154 55.224L151.162 51.528C152.058 52.168 153.226 52.728 154.666 53.208C156.106 53.688 157.786 53.928 159.706 53.928C161.274 53.928 162.586 53.624 163.642 53.016C164.698 52.408 165.226 51.416 165.226 50.04C165.226 49.304 165.066 48.728 164.746 48.312C164.458 47.864 164.042 47.512 163.498 47.256C162.986 46.968 162.362 46.76 161.626 46.632C160.89 46.472 160.106 46.312 159.274 46.152C158.25 45.928 157.226 45.672 156.202 45.384C155.178 45.064 154.25 44.632 153.418 44.088C152.618 43.544 151.962 42.856 151.45 42.024C150.938 41.192 150.682 40.136 150.682 38.856C150.682 36.616 151.53 34.856 153.226 33.576C154.954 32.264 157.354 31.608 160.426 31.608C162.154 31.608 163.658 31.768 164.938 32.088C166.25 32.408 167.418 32.824 168.442 33.336L167.434 36.936C166.922 36.648 166.41 36.392 165.898 36.168C165.418 35.944 164.906 35.768 164.362 35.64C163.818 35.48 163.21 35.368 162.538 35.304C161.898 35.208 161.178 35.16 160.378 35.16C158.65 35.16 157.29 35.432 156.298 35.976C155.338 36.488 154.858 37.416 154.858 38.76C154.858 39.304 154.986 39.768 155.242 40.152C155.498 40.504 155.85 40.808 156.298 41.064C156.778 41.32 157.338 41.544 157.978 41.736C158.65 41.896 159.386 42.072 160.186 42.264C161.274 42.488 162.362 42.744 163.45 43.032C164.57 43.288 165.562 43.688 166.426 44.232C167.322 44.744 168.042 45.448 168.586 46.344C169.162 47.24 169.45 48.44 169.45 49.944C169.45 51.384 169.146 52.584 168.538 53.544C167.962 54.504 167.194 55.288 166.234 55.896C165.306 56.472 164.25 56.872 163.066 57.096C161.914 57.352 160.746 57.48 159.562 57.48Z" fill="black"/>
<rect x="818" y="293" width="262" height="73" fill="#F8CC46"/>
<rect x="1080" y="107" width="262" height="73" fill="#F8CC46"/>
<rect x="1080" y="479" width="262" height="73" fill="#F8CC46"/>
<path d="M1157.88 201.683C1158.26 200.645 1157.72 199.498 1156.68 199.12L1139.77 192.969C1138.73 192.592 1137.58 193.127 1137.2 194.165C1136.83 195.203 1137.36 196.351 1138.4 196.728L1153.44 202.196L1147.97 217.233C1147.59 218.271 1148.13 219.418 1149.17 219.796C1150.2 220.173 1151.35 219.638 1151.73 218.6L1157.88 201.683ZM1021.85 265.812L1156.85 202.812L1155.15 199.188L1020.15 262.188L1021.85 265.812Z" fill="#999999"/>
<path d="M1155.07 458.154C1156.12 457.802 1156.68 456.668 1156.33 455.621L1150.59 438.56C1150.24 437.513 1149.1 436.95 1148.05 437.302C1147.01 437.655 1146.44 438.789 1146.8 439.836L1151.9 455.001L1136.73 460.102C1135.69 460.454 1135.12 461.588 1135.47 462.635C1135.83 463.682 1136.96 464.245 1138.01 463.893L1155.07 458.154ZM1020.11 391.791L1153.54 458.05L1155.32 454.467L1021.89 388.209L1020.11 391.791Z" fill="#999999"/>
<rect x="744.5" y="0.5" width="671" height="658" stroke="#999999"/>
<path d="M771.736 57.48C769.912 57.48 768.232 57.192 766.696 56.616C765.16 56.04 763.832 55.208 762.712 54.12C761.624 53 760.776 51.656 760.168 50.088C759.56 48.488 759.256 46.664 759.256 44.616C759.256 42.6 759.56 40.792 760.168 39.192C760.808 37.56 761.688 36.184 762.808 35.064C763.928 33.944 765.24 33.096 766.744 32.52C768.28 31.912 769.944 31.608 771.736 31.608C773.24 31.608 774.632 31.768 775.912 32.088C777.224 32.408 778.312 32.888 779.176 33.528L778.12 37.176C777.32 36.728 776.408 36.312 775.384 35.928C774.36 35.544 773.16 35.352 771.784 35.352C769.288 35.352 767.288 36.12 765.784 37.656C764.312 39.192 763.576 41.512 763.576 44.616C763.576 47.528 764.312 49.768 765.784 51.336C767.256 52.904 769.24 53.688 771.736 53.688C772.952 53.688 774.056 53.528 775.048 53.208C776.04 52.888 776.984 52.472 777.88 51.96L778.888 55.464C777.992 56.104 776.968 56.6 775.816 56.952C774.664 57.304 773.304 57.48 771.736 57.48ZM794.928 57.48C793.232 57.48 791.648 57.192 790.176 56.616C788.704 56.04 787.424 55.208 786.336 54.12C785.28 53 784.448 51.64 783.84 50.04C783.232 48.44 782.928 46.6 782.928 44.52C782.928 42.472 783.232 40.648 783.84 39.048C784.448 37.416 785.28 36.056 786.336 34.968C787.424 33.88 788.704 33.048 790.176 32.472C791.648 31.896 793.232 31.608 794.928 31.608C796.656 31.608 798.256 31.896 799.728 32.472C801.2 33.048 802.464 33.88 803.52 34.968C804.608 36.056 805.456 37.416 806.064 39.048C806.704 40.648 807.024 42.472 807.024 44.52C807.024 46.6 806.704 48.44 806.064 50.04C805.456 51.64 804.608 53 803.52 54.12C802.464 55.208 801.2 56.04 799.728 56.616C798.256 57.192 796.656 57.48 794.928 57.48ZM794.928 53.688C796.048 53.688 797.088 53.512 798.048 53.16C799.008 52.776 799.824 52.216 800.496 51.48C801.2 50.712 801.744 49.752 802.128 48.6C802.544 47.448 802.752 46.088 802.752 44.52C802.752 42.952 802.544 41.592 802.128 40.44C801.744 39.288 801.2 38.344 800.496 37.608C799.824 36.84 799.008 36.28 798.048 35.928C797.088 35.544 796.048 35.352 794.928 35.352C793.808 35.352 792.784 35.544 791.856 35.928C790.928 36.28 790.112 36.84 789.408 37.608C788.736 38.344 788.208 39.288 787.824 40.44C787.44 41.592 787.248 42.952 787.248 44.52C787.248 46.088 787.44 47.448 787.824 48.6C788.208 49.752 788.736 50.712 789.408 51.48C790.112 52.216 790.928 52.776 791.856 53.16C792.784 53.512 793.808 53.688 794.928 53.688ZM824.449 35.352C822.529 35.352 820.961 35.8 819.745 36.696C818.561 37.56 817.601 38.68 816.865 40.056V57H812.641V32.088H816.625L816.769 36.552H816.865C817.537 35.112 818.593 33.928 820.033 33C821.473 32.072 823.297 31.608 825.505 31.608C827.969 31.608 829.921 32.264 831.361 33.576C832.833 34.856 833.569 36.84 833.569 39.528V57H829.345V39.96C829.345 38.232 828.913 37.032 828.049 36.36C827.185 35.688 825.985 35.352 824.449 35.352ZM853.582 56.328C853.07 56.648 852.334 56.92 851.374 57.144C850.414 57.368 849.47 57.48 848.542 57.48C847.326 57.48 846.286 57.304 845.422 56.952C844.558 56.6 843.854 56.136 843.31 55.56C842.766 54.952 842.366 54.28 842.11 53.544C841.854 52.776 841.726 51.992 841.726 51.192V35.688H838.75V32.088H841.726V26.856H845.998V32.088H853.198V35.688H845.998V50.664C845.998 51.72 846.254 52.488 846.766 52.968C847.31 53.448 848.094 53.688 849.118 53.688C849.758 53.688 850.398 53.608 851.038 53.448C851.71 53.256 852.318 53 852.862 52.68L853.582 56.328ZM865.864 53.688C866.76 53.688 867.576 53.56 868.312 53.304C869.08 53.048 869.752 52.712 870.328 52.296C870.936 51.88 871.464 51.432 871.912 50.952C872.392 50.472 872.792 49.992 873.112 49.512V45.384H869.848C866.84 45.384 864.728 45.784 863.512 46.584C862.296 47.352 861.688 48.456 861.688 49.896C861.688 51.016 862.024 51.928 862.696 52.632C863.368 53.336 864.424 53.688 865.864 53.688ZM873.352 52.872C873 53.416 872.568 53.976 872.056 54.552C871.576 55.096 870.984 55.592 870.28 56.04C869.608 56.456 868.824 56.792 867.928 57.048C867.032 57.336 866.04 57.48 864.952 57.48C862.712 57.48 860.904 56.856 859.528 55.608C858.152 54.328 857.464 52.504 857.464 50.136C857.464 44.728 861.464 42.024 869.464 42.024H873.112V40.152C873.112 38.424 872.648 37.192 871.72 36.456C870.824 35.72 869.32 35.352 867.208 35.352C865.576 35.352 864.12 35.56 862.84 35.976C861.592 36.392 860.504 36.872 859.576 37.416L858.568 33.912C859.432 33.368 860.632 32.856 862.168 32.376C863.704 31.864 865.48 31.608 867.496 31.608C870.696 31.608 873.128 32.264 874.792 33.576C876.488 34.888 877.336 36.904 877.336 39.624V52.968C877.336 53.256 877.336 53.592 877.336 53.976C877.368 54.328 877.384 54.696 877.384 55.08C877.416 55.464 877.448 55.832 877.48 56.184C877.512 56.504 877.544 56.776 877.576 57H873.688C873.624 56.552 873.544 55.928 873.448 55.128C873.384 54.296 873.352 53.576 873.352 52.968V52.872ZM895.158 57.48C893.334 57.48 891.654 57.192 890.118 56.616C888.582 56.04 887.254 55.208 886.134 54.12C885.046 53 884.198 51.656 883.59 50.088C882.982 48.488 882.678 46.664 882.678 44.616C882.678 42.6 882.982 40.792 883.59 39.192C884.23 37.56 885.11 36.184 886.23 35.064C887.35 33.944 888.662 33.096 890.166 32.52C891.702 31.912 893.366 31.608 895.158 31.608C896.662 31.608 898.054 31.768 899.334 32.088C900.646 32.408 901.734 32.888 902.598 33.528L901.542 37.176C900.742 36.728 899.83 36.312 898.806 35.928C897.782 35.544 896.582 35.352 895.206 35.352C892.71 35.352 890.71 36.12 889.206 37.656C887.734 39.192 886.998 41.512 886.998 44.616C886.998 47.528 887.734 49.768 889.206 51.336C890.678 52.904 892.662 53.688 895.158 53.688C896.374 53.688 897.478 53.528 898.47 53.208C899.462 52.888 900.406 52.472 901.302 51.96L902.31 55.464C901.414 56.104 900.39 56.6 899.238 56.952C898.086 57.304 896.726 57.48 895.158 57.48ZM921.176 56.328C920.664 56.648 919.928 56.92 918.968 57.144C918.008 57.368 917.064 57.48 916.136 57.48C914.92 57.48 913.88 57.304 913.016 56.952C912.152 56.6 911.448 56.136 910.904 55.56C910.36 54.952 909.96 54.28 909.704 53.544C909.448 52.776 909.32 51.992 909.32 51.192V35.688H906.344V32.088H909.32V26.856H913.592V32.088H920.792V35.688H913.592V50.664C913.592 51.72 913.848 52.488 914.36 52.968C914.904 53.448 915.688 53.688 916.712 53.688C917.352 53.688 917.992 53.608 918.632 53.448C919.304 53.256 919.912 53 920.456 52.68L921.176 56.328ZM934.609 57.48C932.337 57.48 930.449 57.272 928.945 56.856C927.441 56.408 926.193 55.864 925.201 55.224L926.209 51.528C927.105 52.168 928.273 52.728 929.713 53.208C931.153 53.688 932.833 53.928 934.753 53.928C936.321 53.928 937.633 53.624 938.689 53.016C939.745 52.408 940.273 51.416 940.273 50.04C940.273 49.304 940.113 48.728 939.793 48.312C939.505 47.864 939.089 47.512 938.545 47.256C938.033 46.968 937.409 46.76 936.673 46.632C935.937 46.472 935.153 46.312 934.321 46.152C933.297 45.928 932.273 45.672 931.249 45.384C930.225 45.064 929.297 44.632 928.465 44.088C927.665 43.544 927.009 42.856 926.497 42.024C925.985 41.192 925.729 40.136 925.729 38.856C925.729 36.616 926.577 34.856 928.273 33.576C930.001 32.264 932.401 31.608 935.473 31.608C937.201 31.608 938.705 31.768 939.985 32.088C941.297 32.408 942.465 32.824 943.489 33.336L942.481 36.936C941.969 36.648 941.457 36.392 940.945 36.168C940.465 35.944 939.953 35.768 939.409 35.64C938.865 35.48 938.257 35.368 937.585 35.304C936.945 35.208 936.225 35.16 935.425 35.16C933.697 35.16 932.337 35.432 931.345 35.976C930.385 36.488 929.905 37.416 929.905 38.76C929.905 39.304 930.033 39.768 930.289 40.152C930.545 40.504 930.897 40.808 931.345 41.064C931.825 41.32 932.385 41.544 933.025 41.736C933.697 41.896 934.433 42.072 935.233 42.264C936.321 42.488 937.409 42.744 938.497 43.032C939.617 43.288 940.609 43.688 941.473 44.232C942.369 44.744 943.089 45.448 943.633 46.344C944.209 47.24 944.497 48.44 944.497 49.944C944.497 51.384 944.193 52.584 943.585 53.544C943.009 54.504 942.241 55.288 941.281 55.896C940.353 56.472 939.297 56.872 938.113 57.096C936.961 57.352 935.793 57.48 934.609 57.48ZM952.762 57.288C951.866 57.288 951.114 57 950.506 56.424C949.93 55.816 949.642 55.096 949.642 54.264C949.642 53.368 949.93 52.632 950.506 52.056C951.114 51.48 951.866 51.192 952.762 51.192C953.658 51.192 954.394 51.48 954.97 52.056C955.546 52.632 955.834 53.368 955.834 54.264C955.834 55.096 955.546 55.816 954.97 56.424C954.394 57 953.658 57.288 952.762 57.288ZM965.234 28.44C964.402 28.44 963.73 28.184 963.218 27.672C962.706 27.128 962.45 26.472 962.45 25.704C962.45 24.968 962.706 24.328 963.218 23.784C963.73 23.208 964.402 22.92 965.234 22.92C966.066 22.92 966.738 23.208 967.25 23.784C967.762 24.328 968.018 24.968 968.018 25.704C968.018 26.472 967.762 27.128 967.25 27.672C966.738 28.184 966.066 28.44 965.234 28.44ZM958.13 62.136C959.122 62.04 959.938 61.832 960.578 61.512C961.25 61.224 961.778 60.84 962.162 60.36C962.546 59.912 962.802 59.4 962.93 58.824C963.09 58.248 963.17 57.624 963.17 56.952V32.088H967.346V56.664C967.346 59.256 966.674 61.368 965.33 63C964.018 64.632 961.842 65.608 958.802 65.928L958.13 62.136ZM982.703 57.48C980.431 57.48 978.543 57.272 977.039 56.856C975.535 56.408 974.287 55.864 973.295 55.224L974.303 51.528C975.199 52.168 976.367 52.728 977.807 53.208C979.247 53.688 980.927 53.928 982.847 53.928C984.415 53.928 985.727 53.624 986.783 53.016C987.839 52.408 988.367 51.416 988.367 50.04C988.367 49.304 988.207 48.728 987.887 48.312C987.599 47.864 987.183 47.512 986.639 47.256C986.127 46.968 985.503 46.76 984.767 46.632C984.031 46.472 983.247 46.312 982.415 46.152C981.391 45.928 980.367 45.672 979.343 45.384C978.319 45.064 977.391 44.632 976.559 44.088C975.759 43.544 975.103 42.856 974.591 42.024C974.079 41.192 973.823 40.136 973.823 38.856C973.823 36.616 974.671 34.856 976.367 33.576C978.095 32.264 980.495 31.608 983.567 31.608C985.295 31.608 986.799 31.768 988.079 32.088C989.391 32.408 990.559 32.824 991.583 33.336L990.575 36.936C990.063 36.648 989.551 36.392 989.039 36.168C988.559 35.944 988.047 35.768 987.503 35.64C986.959 35.48 986.351 35.368 985.679 35.304C985.039 35.208 984.319 35.16 983.519 35.16C981.791 35.16 980.431 35.432 979.439 35.976C978.479 36.488 977.999 37.416 977.999 38.76C977.999 39.304 978.127 39.768 978.383 40.152C978.639 40.504 978.991 40.808 979.439 41.064C979.919 41.32 980.479 41.544 981.119 41.736C981.791 41.896 982.527 42.072 983.327 42.264C984.415 42.488 985.503 42.744 986.591 43.032C987.711 43.288 988.703 43.688 989.567 44.232C990.463 44.744 991.183 45.448 991.727 46.344C992.303 47.24 992.591 48.44 992.591 49.944C992.591 51.384 992.287 52.584 991.679 53.544C991.103 54.504 990.335 55.288 989.375 55.896C988.447 56.472 987.391 56.872 986.207 57.096C985.055 57.352 983.887 57.48 982.703 57.48Z" fill="black"/>
<path d="M790.414 330.414C791.195 329.633 791.195 328.367 790.414 327.586L777.686 314.858C776.905 314.077 775.639 314.077 774.858 314.858C774.077 315.639 774.077 316.905 774.858 317.686L786.172 329L774.858 340.314C774.077 341.095 774.077 342.361 774.858 343.142C775.639 343.923 776.905 343.923 777.686 343.142L790.414 330.414ZM404 331H789V327H404V331Z" fill="black"/>
</svg>
