<svg width="1416" height="659" viewBox="0 0 1416 659" fill="none" xmlns="http://www.w3.org/2000/svg">
<rect x="93" y="293" width="262" height="73" fill="#F8CC46"/>
<rect x="355" y="107" width="262" height="73" fill="#F8CC46"/>
<rect x="355" y="479" width="262" height="73" fill="#F8CC46"/>
<path d="M432.88 201.683C433.257 200.645 432.722 199.498 431.683 199.12L414.767 192.969C413.729 192.592 412.582 193.127 412.204 194.165C411.827 195.203 412.362 196.351 413.4 196.728L428.437 202.196L422.969 217.233C422.592 218.271 423.127 219.418 424.165 219.796C425.203 220.173 426.351 219.638 426.728 218.6L432.88 201.683ZM296.846 265.812L431.846 202.812L430.154 199.188L295.154 262.188L296.846 265.812Z" fill="#999999"/>
<path d="M430.068 458.154C431.115 457.802 431.679 456.668 431.326 455.621L425.588 438.56C425.235 437.513 424.101 436.95 423.054 437.302C422.007 437.655 421.444 438.789 421.796 439.836L426.898 455.001L411.733 460.102C410.686 460.454 410.122 461.588 410.475 462.635C410.827 463.682 411.961 464.245 413.008 463.893L430.068 458.154ZM295.11 391.791L428.541 458.05L430.32 454.467L296.89 388.209L295.11 391.791Z" fill="#999999"/>
<path d="M790.414 330.414C791.195 329.633 791.195 328.367 790.414 327.586L777.686 314.858C776.905 314.077 775.639 314.077 774.858 314.858C774.077 315.639 774.077 316.905 774.858 317.686L786.172 329L774.858 340.314C774.077 341.095 774.077 342.361 774.858 343.142C775.639 343.923 776.905 343.923 777.686 343.142L790.414 330.414ZM404 331H789V327H404V331Z" fill="black"/>
<path d="M406.977 280.492V275.641H411.195V280.492H406.977ZM406.977 310V285.109H411.195V310H406.977ZM417.641 310V285.109H421.414V288.602C422.195 287.383 423.234 286.406 424.531 285.672C425.828 284.922 427.305 284.547 428.961 284.547C430.805 284.547 432.312 284.93 433.484 285.695C434.672 286.461 435.508 287.531 435.992 288.906C437.961 286 440.523 284.547 443.68 284.547C446.148 284.547 448.047 285.234 449.375 286.609C450.703 287.969 451.367 290.07 451.367 292.914V310H447.172V294.32C447.172 292.633 447.031 291.422 446.75 290.688C446.484 289.938 445.992 289.336 445.273 288.883C444.555 288.43 443.711 288.203 442.742 288.203C440.992 288.203 439.539 288.789 438.383 289.961C437.227 291.117 436.648 292.977 436.648 295.539V310H432.43V293.828C432.43 291.953 432.086 290.547 431.398 289.609C430.711 288.672 429.586 288.203 428.023 288.203C426.836 288.203 425.734 288.516 424.719 289.141C423.719 289.766 422.992 290.68 422.539 291.883C422.086 293.086 421.859 294.82 421.859 297.086V310H417.641ZM457.625 319.539V285.109H461.469V288.344C462.375 287.078 463.398 286.133 464.539 285.508C465.68 284.867 467.062 284.547 468.688 284.547C470.812 284.547 472.688 285.094 474.312 286.188C475.938 287.281 477.164 288.828 477.992 290.828C478.82 292.812 479.234 294.992 479.234 297.367C479.234 299.914 478.773 302.211 477.852 304.258C476.945 306.289 475.617 307.852 473.867 308.945C472.133 310.023 470.305 310.562 468.383 310.562C466.977 310.562 465.711 310.266 464.586 309.672C463.477 309.078 462.562 308.328 461.844 307.422V319.539H457.625ZM461.445 297.695C461.445 300.898 462.094 303.266 463.391 304.797C464.688 306.328 466.258 307.094 468.102 307.094C469.977 307.094 471.578 306.305 472.906 304.727C474.25 303.133 474.922 300.672 474.922 297.344C474.922 294.172 474.266 291.797 472.953 290.219C471.656 288.641 470.102 287.852 468.289 287.852C466.492 287.852 464.898 288.695 463.508 290.383C462.133 292.055 461.445 294.492 461.445 297.695ZM482.773 297.555C482.773 292.945 484.055 289.531 486.617 287.312C488.758 285.469 491.367 284.547 494.445 284.547C497.867 284.547 500.664 285.672 502.836 287.922C505.008 290.156 506.094 293.25 506.094 297.203C506.094 300.406 505.609 302.93 504.641 304.773C503.688 306.602 502.289 308.023 500.445 309.039C498.617 310.055 496.617 310.562 494.445 310.562C490.961 310.562 488.141 309.445 485.984 307.211C483.844 304.977 482.773 301.758 482.773 297.555ZM487.109 297.555C487.109 300.742 487.805 303.133 489.195 304.727C490.586 306.305 492.336 307.094 494.445 307.094C496.539 307.094 498.281 306.297 499.672 304.703C501.062 303.109 501.758 300.68 501.758 297.414C501.758 294.336 501.055 292.008 499.648 290.43C498.258 288.836 496.523 288.039 494.445 288.039C492.336 288.039 490.586 288.828 489.195 290.406C487.805 291.984 487.109 294.367 487.109 297.555ZM511.016 310V285.109H514.812V288.883C515.781 287.117 516.672 285.953 517.484 285.391C518.312 284.828 519.219 284.547 520.203 284.547C521.625 284.547 523.07 285 524.539 285.906L523.086 289.82C522.055 289.211 521.023 288.906 519.992 288.906C519.07 288.906 518.242 289.188 517.508 289.75C516.773 290.297 516.25 291.062 515.938 292.047C515.469 293.547 515.234 295.188 515.234 296.969V310H511.016ZM536.258 306.227L536.867 309.953C535.68 310.203 534.617 310.328 533.68 310.328C532.148 310.328 530.961 310.086 530.117 309.602C529.273 309.117 528.68 308.484 528.336 307.703C527.992 306.906 527.82 305.242 527.82 302.711V288.391H524.727V285.109H527.82V278.945L532.016 276.414V285.109H536.258V288.391H532.016V302.945C532.016 304.148 532.086 304.922 532.227 305.266C532.383 305.609 532.625 305.883 532.953 306.086C533.297 306.289 533.781 306.391 534.406 306.391C534.875 306.391 535.492 306.336 536.258 306.227ZM548.469 320.102C546.141 317.164 544.172 313.727 542.562 309.789C540.953 305.852 540.148 301.773 540.148 297.555C540.148 293.836 540.75 290.273 541.953 286.867C543.359 282.914 545.531 278.977 548.469 275.055H551.492C549.602 278.305 548.352 280.625 547.742 282.016C546.789 284.172 546.039 286.422 545.492 288.766C544.82 291.688 544.484 294.625 544.484 297.578C544.484 305.094 546.82 312.602 551.492 320.102H548.469ZM559.156 320.102H556.133C560.805 312.602 563.141 305.094 563.141 297.578C563.141 294.641 562.805 291.727 562.133 288.836C561.602 286.492 560.859 284.242 559.906 282.086C559.297 280.68 558.039 278.336 556.133 275.055H559.156C562.094 278.977 564.266 282.914 565.672 286.867C566.875 290.273 567.477 293.836 567.477 297.555C567.477 301.773 566.664 305.852 565.039 309.789C563.43 313.727 561.469 317.164 559.156 320.102Z" fill="black"/>
<rect x="0.5" y="0.5" width="671" height="658" stroke="#999999"/>
<path d="M20.5859 57V32.1094H24.3594V35.6016C25.1406 34.3828 26.1797 33.4062 27.4766 32.6719C28.7734 31.9219 30.25 31.5469 31.9062 31.5469C33.75 31.5469 35.2578 31.9297 36.4297 32.6953C37.6172 33.4609 38.4531 34.5312 38.9375 35.9062C40.9062 33 43.4688 31.5469 46.625 31.5469C49.0938 31.5469 50.9922 32.2344 52.3203 33.6094C53.6484 34.9688 54.3125 37.0703 54.3125 39.9141V57H50.1172V41.3203C50.1172 39.6328 49.9766 38.4219 49.6953 37.6875C49.4297 36.9375 48.9375 36.3359 48.2188 35.8828C47.5 35.4297 46.6562 35.2031 45.6875 35.2031C43.9375 35.2031 42.4844 35.7891 41.3281 36.9609C40.1719 38.1172 39.5938 39.9766 39.5938 42.5391V57H35.375V40.8281C35.375 38.9531 35.0312 37.5469 34.3438 36.6094C33.6562 35.6719 32.5312 35.2031 30.9688 35.2031C29.7812 35.2031 28.6797 35.5156 27.6641 36.1406C26.6641 36.7656 25.9375 37.6797 25.4844 38.8828C25.0312 40.0859 24.8047 41.8203 24.8047 44.0859V57H20.5859ZM76.8125 53.9297C75.25 55.2578 73.7422 56.1953 72.2891 56.7422C70.8516 57.2891 69.3047 57.5625 67.6484 57.5625C64.9141 57.5625 62.8125 56.8984 61.3438 55.5703C59.875 54.2266 59.1406 52.5156 59.1406 50.4375C59.1406 49.2188 59.4141 48.1094 59.9609 47.1094C60.5234 46.0938 61.25 45.2812 62.1406 44.6719C63.0469 44.0625 64.0625 43.6016 65.1875 43.2891C66.0156 43.0703 67.2656 42.8594 68.9375 42.6562C72.3438 42.25 74.8516 41.7656 76.4609 41.2031C76.4766 40.625 76.4844 40.2578 76.4844 40.1016C76.4844 38.3828 76.0859 37.1719 75.2891 36.4688C74.2109 35.5156 72.6094 35.0391 70.4844 35.0391C68.5 35.0391 67.0312 35.3906 66.0781 36.0938C65.1406 36.7812 64.4453 38.0078 63.9922 39.7734L59.8672 39.2109C60.2422 37.4453 60.8594 36.0234 61.7188 34.9453C62.5781 33.8516 63.8203 33.0156 65.4453 32.4375C67.0703 31.8438 68.9531 31.5469 71.0938 31.5469C73.2188 31.5469 74.9453 31.7969 76.2734 32.2969C77.6016 32.7969 78.5781 33.4297 79.2031 34.1953C79.8281 34.9453 80.2656 35.8984 80.5156 37.0547C80.6562 37.7734 80.7266 39.0703 80.7266 40.9453V46.5703C80.7266 50.4922 80.8125 52.9766 80.9844 54.0234C81.1719 55.0547 81.5312 56.0469 82.0625 57H77.6562C77.2188 56.125 76.9375 55.1016 76.8125 53.9297ZM76.4609 44.5078C74.9297 45.1328 72.6328 45.6641 69.5703 46.1016C67.8359 46.3516 66.6094 46.6328 65.8906 46.9453C65.1719 47.2578 64.6172 47.7188 64.2266 48.3281C63.8359 48.9219 63.6406 49.5859 63.6406 50.3203C63.6406 51.4453 64.0625 52.3828 64.9062 53.1328C65.7656 53.8828 67.0156 54.2578 68.6562 54.2578C70.2812 54.2578 71.7266 53.9062 72.9922 53.2031C74.2578 52.4844 75.1875 51.5078 75.7812 50.2734C76.2344 49.3203 76.4609 47.9141 76.4609 46.0547V44.5078ZM87.3125 27.4922V22.6406H91.5312V27.4922H87.3125ZM87.3125 57V32.1094H91.5312V57H87.3125ZM97.9766 57V32.1094H101.773V35.6484C103.602 32.9141 106.242 31.5469 109.695 31.5469C111.195 31.5469 112.57 31.8203 113.82 32.3672C115.086 32.8984 116.031 33.6016 116.656 34.4766C117.281 35.3516 117.719 36.3906 117.969 37.5938C118.125 38.375 118.203 39.7422 118.203 41.6953V57H113.984V41.8594C113.984 40.1406 113.82 38.8594 113.492 38.0156C113.164 37.1562 112.578 36.4766 111.734 35.9766C110.906 35.4609 109.93 35.2031 108.805 35.2031C107.008 35.2031 105.453 35.7734 104.141 36.9141C102.844 38.0547 102.195 40.2188 102.195 43.4062V57H97.9766ZM125.891 57V52.1953H130.695V57H125.891ZM138.031 27.5391V22.6406H142.25V27.5391H138.031ZM132.688 66.6562L133.484 63.0703C134.328 63.2891 134.992 63.3984 135.477 63.3984C136.336 63.3984 136.977 63.1094 137.398 62.5312C137.82 61.9688 138.031 60.5469 138.031 58.2656V32.1094H142.25V58.3594C142.25 61.4219 141.852 63.5547 141.055 64.7578C140.039 66.3203 138.352 67.1016 135.992 67.1016C134.852 67.1016 133.75 66.9531 132.688 66.6562ZM147.055 49.5703L151.227 48.9141C151.461 50.5859 152.109 51.8672 153.172 52.7578C154.25 53.6484 155.75 54.0938 157.672 54.0938C159.609 54.0938 161.047 53.7031 161.984 52.9219C162.922 52.125 163.391 51.1953 163.391 50.1328C163.391 49.1797 162.977 48.4297 162.148 47.8828C161.57 47.5078 160.133 47.0312 157.836 46.4531C154.742 45.6719 152.594 45 151.391 44.4375C150.203 43.8594 149.297 43.0703 148.672 42.0703C148.062 41.0547 147.758 39.9375 147.758 38.7188C147.758 37.6094 148.008 36.5859 148.508 35.6484C149.023 34.6953 149.719 33.9062 150.594 33.2812C151.25 32.7969 152.141 32.3906 153.266 32.0625C154.406 31.7188 155.625 31.5469 156.922 31.5469C158.875 31.5469 160.586 31.8281 162.055 32.3906C163.539 32.9531 164.633 33.7188 165.336 34.6875C166.039 35.6406 166.523 36.9219 166.789 38.5312L162.664 39.0938C162.477 37.8125 161.93 36.8125 161.023 36.0938C160.133 35.375 158.867 35.0156 157.227 35.0156C155.289 35.0156 153.906 35.3359 153.078 35.9766C152.25 36.6172 151.836 37.3672 151.836 38.2266C151.836 38.7734 152.008 39.2656 152.352 39.7031C152.695 40.1562 153.234 40.5312 153.969 40.8281C154.391 40.9844 155.633 41.3438 157.695 41.9062C160.68 42.7031 162.758 43.3594 163.93 43.875C165.117 44.375 166.047 45.1094 166.719 46.0781C167.391 47.0469 167.727 48.25 167.727 49.6875C167.727 51.0938 167.312 52.4219 166.484 53.6719C165.672 54.9062 164.492 55.8672 162.945 56.5547C161.398 57.2266 159.648 57.5625 157.695 57.5625C154.461 57.5625 151.992 56.8906 150.289 55.5469C148.602 54.2031 147.523 52.2109 147.055 49.5703Z" fill="black"/>
<rect x="818" y="293" width="262" height="73" fill="#F8CC46"/>
<rect x="1080" y="107" width="262" height="73" fill="#F8CC46"/>
<rect x="1080" y="479" width="262" height="73" fill="#F8CC46"/>
<path d="M1157.88 201.683C1158.26 200.645 1157.72 199.498 1156.68 199.12L1139.77 192.969C1138.73 192.592 1137.58 193.127 1137.2 194.165C1136.83 195.203 1137.36 196.351 1138.4 196.728L1153.44 202.196L1147.97 217.233C1147.59 218.271 1148.13 219.418 1149.17 219.796C1150.2 220.173 1151.35 219.638 1151.73 218.6L1157.88 201.683ZM1021.85 265.812L1156.85 202.812L1155.15 199.188L1020.15 262.188L1021.85 265.812Z" fill="#999999"/>
<path d="M1155.07 458.154C1156.12 457.802 1156.68 456.668 1156.33 455.621L1150.59 438.56C1150.24 437.513 1149.1 436.95 1148.05 437.302C1147.01 437.655 1146.44 438.789 1146.8 439.836L1151.9 455.001L1136.73 460.102C1135.69 460.454 1135.12 461.588 1135.47 462.635C1135.83 463.682 1136.96 464.245 1138.01 463.893L1155.07 458.154ZM1020.11 391.791L1153.54 458.05L1155.32 454.467L1021.89 388.209L1020.11 391.791Z" fill="#999999"/>
<rect x="744.5" y="0.5" width="671" height="658" stroke="#999999"/>
<path d="M782.445 47.8828L786.594 48.4219C786.141 51.2812 784.977 53.5234 783.102 55.1484C781.242 56.7578 778.953 57.5625 776.234 57.5625C772.828 57.5625 770.086 56.4531 768.008 54.2344C765.945 52 764.914 48.8047 764.914 44.6484C764.914 41.9609 765.359 39.6094 766.25 37.5938C767.141 35.5781 768.492 34.0703 770.305 33.0703C772.133 32.0547 774.117 31.5469 776.258 31.5469C778.961 31.5469 781.172 32.2344 782.891 33.6094C784.609 34.9688 785.711 36.9062 786.195 39.4219L782.094 40.0547C781.703 38.3828 781.008 37.125 780.008 36.2812C779.023 35.4375 777.828 35.0156 776.422 35.0156C774.297 35.0156 772.57 35.7812 771.242 37.3125C769.914 38.8281 769.25 41.2344 769.25 44.5312C769.25 47.875 769.891 50.3047 771.172 51.8203C772.453 53.3359 774.125 54.0938 776.188 54.0938C777.844 54.0938 779.227 53.5859 780.336 52.5703C781.445 51.5547 782.148 49.9922 782.445 47.8828ZM788.633 44.5547C788.633 39.9453 789.914 36.5312 792.477 34.3125C794.617 32.4688 797.227 31.5469 800.305 31.5469C803.727 31.5469 806.523 32.6719 808.695 34.9219C810.867 37.1562 811.953 40.25 811.953 44.2031C811.953 47.4062 811.469 49.9297 810.5 51.7734C809.547 53.6016 808.148 55.0234 806.305 56.0391C804.477 57.0547 802.477 57.5625 800.305 57.5625C796.82 57.5625 794 56.4453 791.844 54.2109C789.703 51.9766 788.633 48.7578 788.633 44.5547ZM792.969 44.5547C792.969 47.7422 793.664 50.1328 795.055 51.7266C796.445 53.3047 798.195 54.0938 800.305 54.0938C802.398 54.0938 804.141 53.2969 805.531 51.7031C806.922 50.1094 807.617 47.6797 807.617 44.4141C807.617 41.3359 806.914 39.0078 805.508 37.4297C804.117 35.8359 802.383 35.0391 800.305 35.0391C798.195 35.0391 796.445 35.8281 795.055 37.4062C793.664 38.9844 792.969 41.3672 792.969 44.5547ZM816.922 57V32.1094H820.719V35.6484C822.547 32.9141 825.188 31.5469 828.641 31.5469C830.141 31.5469 831.516 31.8203 832.766 32.3672C834.031 32.8984 834.977 33.6016 835.602 34.4766C836.227 35.3516 836.664 36.3906 836.914 37.5938C837.07 38.375 837.148 39.7422 837.148 41.6953V57H832.93V41.8594C832.93 40.1406 832.766 38.8594 832.438 38.0156C832.109 37.1562 831.523 36.4766 830.68 35.9766C829.852 35.4609 828.875 35.2031 827.75 35.2031C825.953 35.2031 824.398 35.7734 823.086 36.9141C821.789 38.0547 821.141 40.2188 821.141 43.4062V57H816.922ZM852.852 53.2266L853.461 56.9531C852.273 57.2031 851.211 57.3281 850.273 57.3281C848.742 57.3281 847.555 57.0859 846.711 56.6016C845.867 56.1172 845.273 55.4844 844.93 54.7031C844.586 53.9062 844.414 52.2422 844.414 49.7109V35.3906H841.32V32.1094H844.414V25.9453L848.609 23.4141V32.1094H852.852V35.3906H848.609V49.9453C848.609 51.1484 848.68 51.9219 848.82 52.2656C848.977 52.6094 849.219 52.8828 849.547 53.0859C849.891 53.2891 850.375 53.3906 851 53.3906C851.469 53.3906 852.086 53.3359 852.852 53.2266ZM873.242 53.9297C871.68 55.2578 870.172 56.1953 868.719 56.7422C867.281 57.2891 865.734 57.5625 864.078 57.5625C861.344 57.5625 859.242 56.8984 857.773 55.5703C856.305 54.2266 855.57 52.5156 855.57 50.4375C855.57 49.2188 855.844 48.1094 856.391 47.1094C856.953 46.0938 857.68 45.2812 858.57 44.6719C859.477 44.0625 860.492 43.6016 861.617 43.2891C862.445 43.0703 863.695 42.8594 865.367 42.6562C868.773 42.25 871.281 41.7656 872.891 41.2031C872.906 40.625 872.914 40.2578 872.914 40.1016C872.914 38.3828 872.516 37.1719 871.719 36.4688C870.641 35.5156 869.039 35.0391 866.914 35.0391C864.93 35.0391 863.461 35.3906 862.508 36.0938C861.57 36.7812 860.875 38.0078 860.422 39.7734L856.297 39.2109C856.672 37.4453 857.289 36.0234 858.148 34.9453C859.008 33.8516 860.25 33.0156 861.875 32.4375C863.5 31.8438 865.383 31.5469 867.523 31.5469C869.648 31.5469 871.375 31.7969 872.703 32.2969C874.031 32.7969 875.008 33.4297 875.633 34.1953C876.258 34.9453 876.695 35.8984 876.945 37.0547C877.086 37.7734 877.156 39.0703 877.156 40.9453V46.5703C877.156 50.4922 877.242 52.9766 877.414 54.0234C877.602 55.0547 877.961 56.0469 878.492 57H874.086C873.648 56.125 873.367 55.1016 873.242 53.9297ZM872.891 44.5078C871.359 45.1328 869.062 45.6641 866 46.1016C864.266 46.3516 863.039 46.6328 862.32 46.9453C861.602 47.2578 861.047 47.7188 860.656 48.3281C860.266 48.9219 860.07 49.5859 860.07 50.3203C860.07 51.4453 860.492 52.3828 861.336 53.1328C862.195 53.8828 863.445 54.2578 865.086 54.2578C866.711 54.2578 868.156 53.9062 869.422 53.2031C870.688 52.4844 871.617 51.5078 872.211 50.2734C872.664 49.3203 872.891 47.9141 872.891 46.0547V44.5078ZM899.961 47.8828L904.109 48.4219C903.656 51.2812 902.492 53.5234 900.617 55.1484C898.758 56.7578 896.469 57.5625 893.75 57.5625C890.344 57.5625 887.602 56.4531 885.523 54.2344C883.461 52 882.43 48.8047 882.43 44.6484C882.43 41.9609 882.875 39.6094 883.766 37.5938C884.656 35.5781 886.008 34.0703 887.82 33.0703C889.648 32.0547 891.633 31.5469 893.773 31.5469C896.477 31.5469 898.688 32.2344 900.406 33.6094C902.125 34.9688 903.227 36.9062 903.711 39.4219L899.609 40.0547C899.219 38.3828 898.523 37.125 897.523 36.2812C896.539 35.4375 895.344 35.0156 893.938 35.0156C891.812 35.0156 890.086 35.7812 888.758 37.3125C887.43 38.8281 886.766 41.2344 886.766 44.5312C886.766 47.875 887.406 50.3047 888.688 51.8203C889.969 53.3359 891.641 54.0938 893.703 54.0938C895.359 54.0938 896.742 53.5859 897.852 52.5703C898.961 51.5547 899.664 49.9922 899.961 47.8828ZM916.93 53.2266L917.539 56.9531C916.352 57.2031 915.289 57.3281 914.352 57.3281C912.82 57.3281 911.633 57.0859 910.789 56.6016C909.945 56.1172 909.352 55.4844 909.008 54.7031C908.664 53.9062 908.492 52.2422 908.492 49.7109V35.3906H905.398V32.1094H908.492V25.9453L912.688 23.4141V32.1094H916.93V35.3906H912.688V49.9453C912.688 51.1484 912.758 51.9219 912.898 52.2656C913.055 52.6094 913.297 52.8828 913.625 53.0859C913.969 53.2891 914.453 53.3906 915.078 53.3906C915.547 53.3906 916.164 53.3359 916.93 53.2266ZM919.391 49.5703L923.562 48.9141C923.797 50.5859 924.445 51.8672 925.508 52.7578C926.586 53.6484 928.086 54.0938 930.008 54.0938C931.945 54.0938 933.383 53.7031 934.32 52.9219C935.258 52.125 935.727 51.1953 935.727 50.1328C935.727 49.1797 935.312 48.4297 934.484 47.8828C933.906 47.5078 932.469 47.0312 930.172 46.4531C927.078 45.6719 924.93 45 923.727 44.4375C922.539 43.8594 921.633 43.0703 921.008 42.0703C920.398 41.0547 920.094 39.9375 920.094 38.7188C920.094 37.6094 920.344 36.5859 920.844 35.6484C921.359 34.6953 922.055 33.9062 922.93 33.2812C923.586 32.7969 924.477 32.3906 925.602 32.0625C926.742 31.7188 927.961 31.5469 929.258 31.5469C931.211 31.5469 932.922 31.8281 934.391 32.3906C935.875 32.9531 936.969 33.7188 937.672 34.6875C938.375 35.6406 938.859 36.9219 939.125 38.5312L935 39.0938C934.812 37.8125 934.266 36.8125 933.359 36.0938C932.469 35.375 931.203 35.0156 929.562 35.0156C927.625 35.0156 926.242 35.3359 925.414 35.9766C924.586 36.6172 924.172 37.3672 924.172 38.2266C924.172 38.7734 924.344 39.2656 924.688 39.7031C925.031 40.1562 925.57 40.5312 926.305 40.8281C926.727 40.9844 927.969 41.3438 930.031 41.9062C933.016 42.7031 935.094 43.3594 936.266 43.875C937.453 44.375 938.383 45.1094 939.055 46.0781C939.727 47.0469 940.062 48.25 940.062 49.6875C940.062 51.0938 939.648 52.4219 938.82 53.6719C938.008 54.9062 936.828 55.8672 935.281 56.5547C933.734 57.2266 931.984 57.5625 930.031 57.5625C926.797 57.5625 924.328 56.8906 922.625 55.5469C920.938 54.2031 919.859 52.2109 919.391 49.5703ZM946.273 57V52.1953H951.078V57H946.273ZM958.414 27.5391V22.6406H962.633V27.5391H958.414ZM953.07 66.6562L953.867 63.0703C954.711 63.2891 955.375 63.3984 955.859 63.3984C956.719 63.3984 957.359 63.1094 957.781 62.5312C958.203 61.9688 958.414 60.5469 958.414 58.2656V32.1094H962.633V58.3594C962.633 61.4219 962.234 63.5547 961.438 64.7578C960.422 66.3203 958.734 67.1016 956.375 67.1016C955.234 67.1016 954.133 66.9531 953.07 66.6562ZM967.438 49.5703L971.609 48.9141C971.844 50.5859 972.492 51.8672 973.555 52.7578C974.633 53.6484 976.133 54.0938 978.055 54.0938C979.992 54.0938 981.43 53.7031 982.367 52.9219C983.305 52.125 983.773 51.1953 983.773 50.1328C983.773 49.1797 983.359 48.4297 982.531 47.8828C981.953 47.5078 980.516 47.0312 978.219 46.4531C975.125 45.6719 972.977 45 971.773 44.4375C970.586 43.8594 969.68 43.0703 969.055 42.0703C968.445 41.0547 968.141 39.9375 968.141 38.7188C968.141 37.6094 968.391 36.5859 968.891 35.6484C969.406 34.6953 970.102 33.9062 970.977 33.2812C971.633 32.7969 972.523 32.3906 973.648 32.0625C974.789 31.7188 976.008 31.5469 977.305 31.5469C979.258 31.5469 980.969 31.8281 982.438 32.3906C983.922 32.9531 985.016 33.7188 985.719 34.6875C986.422 35.6406 986.906 36.9219 987.172 38.5312L983.047 39.0938C982.859 37.8125 982.312 36.8125 981.406 36.0938C980.516 35.375 979.25 35.0156 977.609 35.0156C975.672 35.0156 974.289 35.3359 973.461 35.9766C972.633 36.6172 972.219 37.3672 972.219 38.2266C972.219 38.7734 972.391 39.2656 972.734 39.7031C973.078 40.1562 973.617 40.5312 974.352 40.8281C974.773 40.9844 976.016 41.3438 978.078 41.9062C981.062 42.7031 983.141 43.3594 984.312 43.875C985.5 44.375 986.43 45.1094 987.102 46.0781C987.773 47.0469 988.109 48.25 988.109 49.6875C988.109 51.0938 987.695 52.4219 986.867 53.6719C986.055 54.9062 984.875 55.8672 983.328 56.5547C981.781 57.2266 980.031 57.5625 978.078 57.5625C974.844 57.5625 972.375 56.8906 970.672 55.5469C968.984 54.2031 967.906 52.2109 967.438 49.5703Z" fill="black"/>
</svg>
